<svg width="243" height="29" viewBox="0 0 243 29" fill="none" xmlns="http://www.w3.org/2000/svg">
<path d="M0.00604534 28.5063C5.89421 28.4899 13.4005 28.5206 19.2846 28.541C24.5763 28.2796 29.0922 25.6798 29.8821 20.1473C30.267 17.572 29.2312 14.6945 27.2645 13.1179C25.733 11.9007 23.8166 11.4228 21.9305 11.1226C19.8549 10.7938 17.7552 10.6937 15.6615 10.5692C14.4282 10.4956 13.195 10.4262 11.9718 10.2526C11.2141 10.1464 10.1219 9.88092 9.93652 8.99867C9.78337 8.2655 10.3859 7.6324 11.067 7.51803C11.4781 7.49965 11.8872 7.48331 12.2982 7.46902H29.8821L30.6317 0.525356C29.7572 0.515144 28.8826 0.506975 28.0081 0.500849C25.9728 0.484511 23.9395 0.470215 21.9043 0.464088C19.5909 0.455919 17.2756 0.455919 14.9602 0.476342C13.8781 0.486553 12.7859 0.451834 11.7058 0.539651C9.18287 0.743877 6.44635 1.56282 4.60856 3.41923C2.87557 5.15923 2.23073 7.95916 2.3597 10.4201C2.38186 11.3493 2.76474 12.2152 3.14358 13.0525C3.62519 14.2023 4.64887 14.9825 5.67657 15.6074C7.99798 16.9389 10.6841 17.2004 13.2756 17.3821C14.6499 17.4679 16.0443 17.5516 17.4267 17.6211C18.8151 17.6905 20.4655 17.715 21.6746 18.5115C22.2811 18.9118 22.4423 19.6368 22.136 20.2882C21.7652 21.0766 20.9854 21.3727 20.1814 21.4932C14.0554 21.6239 7.13149 21.4932 1.00756 21.5483C1.00756 21.9711 0.209572 26.9072 0 28.5063H0.00604534Z" fill="white"/>
<path d="M56.4641 0.512602L35.9724 0.408447L34.9145 7.37662H54.2595C55.9301 7.37662 57.2842 8.74901 57.2842 10.442V11.02C57.2842 13.3727 55.4021 15.2801 53.0807 15.2801C53.0807 15.2801 41.0726 15.274 40.9981 15.2679L41.6873 10.4951H34.2998L31.6318 28.5915H39.0192L40.0006 21.9358H52.9437C59.648 21.9358 64.8792 16.4279 64.8792 9.63331V9.05535C64.8792 4.22338 61.2318 0.514644 56.4641 0.514644V0.512602Z" fill="white"/>
<path d="M88.3678 0.00204225H81.0268C72.66 0.00204225 65.8792 6.87627 65.8792 15.3537V18.3006C65.8792 24.2089 70.6066 29 76.4363 29H83.0076C91.7996 29 98.927 21.7765 98.927 12.8662V10.6994C98.927 4.78908 94.1996 0 88.3698 0L88.3678 0.00204225ZM91.1668 13.5524C91.1668 18.0801 87.5456 21.752 83.0761 21.752H78.931C75.9688 21.752 73.5648 19.3177 73.5648 16.3135V14.8145C73.5648 10.5054 77.0106 7.0131 81.2625 7.0131H85.8006C88.7628 7.0131 91.1668 9.44746 91.1668 12.4516V13.5524Z" fill="white"/>
<path d="M132.572 9.87435V9.3066C132.572 4.56245 128.777 0.714844 124.094 0.714844H104.159L103.151 7.45428H122.265C123.951 7.45428 125.317 8.83893 125.317 10.5483C125.317 12.7866 123.526 14.6022 121.317 14.6022H109.398L110.003 10.5177H102.547L99.927 28.2853H107.383L108.437 21.1374H114.033L121.489 28.2526L131.564 28.2853L123.617 20.4308C128.765 19.3667 132.572 15.5069 132.572 9.87231V9.87435Z" fill="white"/>
<path d="M163.482 0.663696H134.612L133.572 7.70947H144.069L141.028 28.3362H148.415L151.456 7.70947H162.444L163.482 0.663696Z" fill="white"/>
<path d="M171.966 28.3362H164.482L168.585 0.663696H176.069L171.966 28.3362Z" fill="white"/>
<path d="M208.964 7.70947L210.002 0.663696H181.132L180.092 7.70947H180.11L179.342 12.9172H179.318L178.278 19.963H178.304L177.069 28.3362H184.456L185.69 19.963H207.151L208.188 12.9172H186.73L187.497 7.70947H208.964Z" fill="white"/>
<path d="M242.73 0.612671H233.974L224.594 12.2535L218.952 0.645347H211.002L220.06 19.5035L218.75 28.3873H225.994L227.304 19.5035H227.314L242.73 0.612671Z" fill="white"/>
</svg>
