<svg width="80" height="80" viewBox="0 0 80 80" fill="none" xmlns="http://www.w3.org/2000/svg">
<path d="M15.2046 48.5224L29.3431 8.45124C29.3431 8.45124 34.0565 3.73664 39.9533 9.63332C45.8501 15.53 43.4888 22.5969 43.4888 22.5969M15.2046 48.5224L19.9196 53.2393M15.2046 48.5224C8.13966 55.6002 5.76694 62.656 11.6687 68.5575C17.5704 74.4589 24.6328 72.0928 31.7038 65.0216M15.2046 48.5224L31.7038 65.0216M19.9196 53.2393L43.4888 22.5969M19.9196 53.2393L26.99 60.3096M43.4888 22.5969C43.4888 22.5969 49.3827 19.0628 55.2754 24.9554C61.1681 30.848 57.6324 36.7404 57.6324 36.7404M31.7038 65.0216L71.7781 50.8861C71.7781 50.8861 76.4929 46.1726 70.596 40.276C64.6992 34.3793 57.6324 36.7404 57.6324 36.7404M31.7038 65.0216L26.99 60.3096M26.99 60.3096L57.6324 36.7404" stroke="#F2F2F2" strokeWidth="1.5" strokeLinejoin="round"/>
</svg>
