<svg width="80" height="80" viewBox="0 0 80 80" fill="none" xmlns="http://www.w3.org/2000/svg">
<path d="M55.8595 20.9465L55.263 20.492L55.263 20.492L55.8595 20.9465ZM38.2219 10.7634L37.53 10.4741L37.53 10.4741L38.2219 10.7634ZM25.5382 43.0984C25.1795 42.8913 24.7208 43.0142 24.5137 43.3729C24.3066 43.7316 24.4295 44.1903 24.7882 44.3974L25.5382 43.0984ZM33.4485 49.3974C33.8072 49.6045 34.2659 49.4816 34.473 49.1229C34.6801 48.7642 34.5572 48.3055 34.1985 48.0984L33.4485 49.3974ZM6.66675 65.7859L6.01723 65.4109C5.81012 65.7697 5.93303 66.2283 6.29175 66.4355L6.66675 65.7859ZM20.327 62.1257L19.952 62.7752L20.327 62.1257ZM23.9873 75.7859L23.6123 76.4355C23.7845 76.5349 23.9892 76.5619 24.1814 76.5104C24.3735 76.4589 24.5373 76.3332 24.6368 76.1609L23.9873 75.7859ZM55.8595 20.9465L55.263 20.492L22.6169 63.3371L23.2134 63.7917L23.81 64.2462L56.4561 21.4011L55.8595 20.9465ZM17.4399 60.4583L18.1319 60.7477L38.9138 11.0528L38.2219 10.7634L37.53 10.4741L16.748 60.169L17.4399 60.4583ZM25.1632 43.7479L24.7882 44.3974L33.4485 49.3974L33.8235 48.7479L34.1985 48.0984L25.5382 43.0984L25.1632 43.7479ZM52.8267 5.83337L52.4517 6.48289C57.4194 9.35097 58.7395 15.9293 55.263 20.492L55.8595 20.9465L56.4561 21.4011C60.4806 16.1193 58.9524 8.504 53.2017 5.18385L52.8267 5.83337ZM52.8267 5.83337L53.2017 5.18385C47.451 1.86369 40.0919 4.34787 37.53 10.4741L38.2219 10.7634L38.9138 11.0528C41.1269 5.76074 47.484 3.6148 52.4517 6.48289L52.8267 5.83337ZM6.66675 65.7859L7.31627 66.1609C9.87058 61.7367 15.5278 60.2209 19.952 62.7752L20.327 62.1257L20.702 61.4762C15.5604 58.5076 8.98576 60.2693 6.01723 65.4109L6.66675 65.7859ZM20.327 62.1257L19.952 62.7752C24.3762 65.3295 25.8921 70.9867 23.3377 75.4109L23.9873 75.7859L24.6368 76.1609C27.6053 71.0193 25.8436 64.4447 20.702 61.4762L20.327 62.1257ZM23.9873 75.7859L24.3623 75.1364L7.04175 65.1364L6.66675 65.7859L6.29175 66.4355L23.6123 76.4355L23.9873 75.7859ZM70.0001 60H69.2501C69.2501 65.1087 65.1087 69.25 60.0001 69.25V70V70.75C65.9371 70.75 70.7501 65.9371 70.7501 60H70.0001ZM60.0001 70V69.25C54.8914 69.25 50.7501 65.1087 50.7501 60H50.0001H49.2501C49.2501 65.9371 54.063 70.75 60.0001 70.75V70ZM50.0001 60H50.7501C50.7501 54.8914 54.8914 50.75 60.0001 50.75V50V49.25C54.063 49.25 49.2501 54.063 49.2501 60H50.0001ZM60.0001 50V50.75C65.1087 50.75 69.2501 54.8914 69.2501 60H70.0001H70.7501C70.7501 54.063 65.9371 49.25 60.0001 49.25V50Z" fill="#F2F2F2"/>
</svg>
