<svg width="80" height="80" viewBox="0 0 80 80" fill="none" xmlns="http://www.w3.org/2000/svg">
<path d="M55.8594 20.9464L55.2629 20.4919L55.8594 20.9464ZM38.2218 10.7634L37.5299 10.474L38.2218 10.7634ZM25.5381 43.0983C25.1794 42.8912 24.7207 43.0141 24.5136 43.3728C24.3065 43.7315 24.4294 44.1902 24.7881 44.3973L25.5381 43.0983ZM33.4484 49.3973C33.8071 49.6045 34.2658 49.4815 34.4729 49.1228C34.68 48.7641 34.5571 48.3054 34.1984 48.0983L33.4484 49.3973ZM6.66666 65.7859L6.01714 65.4109C5.81003 65.7696 5.93294 66.2283 6.29166 66.4354L6.66666 65.7859ZM20.3269 62.1256L19.9519 62.7751L20.3269 62.1256ZM23.9872 75.7859L23.6122 76.4354C23.7844 76.5349 23.9891 76.5618 24.1813 76.5103C24.3734 76.4588 24.5372 76.3331 24.6367 76.1609L23.9872 75.7859ZM55.8594 20.9464L55.2629 20.4919L22.6168 63.3371L23.2134 63.7916L23.8099 64.2462L56.456 21.401L55.8594 20.9464ZM17.4398 60.4583L18.1318 60.7477L38.9137 11.0527L38.2218 10.7634L37.5299 10.474L16.7479 60.1689L17.4398 60.4583ZM25.1631 43.7478L24.7881 44.3973L33.4484 49.3973L33.8234 48.7478L34.1984 48.0983L25.5381 43.0983L25.1631 43.7478ZM52.8266 5.83331L52.4516 6.48282C57.4193 9.3509 58.7394 15.9293 55.2629 20.4919L55.8594 20.9464L56.456 21.401C60.4805 16.1192 58.9523 8.50394 53.2016 5.18379L52.8266 5.83331ZM52.8266 5.83331L53.2016 5.18379C47.4509 1.86363 40.0918 4.34781 37.5299 10.474L38.2218 10.7634L38.9137 11.0527C41.1268 5.76068 47.4839 3.61474 52.4516 6.48282L52.8266 5.83331ZM6.66666 65.7859L7.31618 66.1609C9.87049 61.7367 15.5277 60.2208 19.9519 62.7751L20.3269 62.1256L20.7019 61.4761C15.5603 58.5076 8.98567 60.2692 6.01714 65.4109L6.66666 65.7859ZM20.3269 62.1256L19.9519 62.7751C24.3761 65.3295 25.892 70.9867 23.3376 75.4109L23.9872 75.7859L24.6367 76.1609C27.6052 71.0192 25.8436 64.4446 20.7019 61.4761L20.3269 62.1256ZM23.9872 75.7859L24.3622 75.1364L7.04166 65.1364L6.66666 65.7859L6.29166 66.4354L23.6122 76.4354L23.9872 75.7859ZM70 60H69.25C69.25 65.1086 65.1086 69.25 60 69.25V70V70.75C65.937 70.75 70.75 65.937 70.75 60H70ZM60 70V69.25C54.8914 69.25 50.75 65.1086 50.75 60H50H49.25C49.25 65.937 54.0629 70.75 60 70.75V70ZM50 60H50.75C50.75 54.8913 54.8914 50.75 60 50.75V50V49.25C54.0629 49.25 49.25 54.0629 49.25 60H50ZM60 50V50.75C65.1086 50.75 69.25 54.8913 69.25 60H70H70.75C70.75 54.0629 65.937 49.25 60 49.25V50Z" fill="#F2F2F2"/>
</svg>
