<svg width="80" height="80" viewBox="0 0 80 80" fill="none" xmlns="http://www.w3.org/2000/svg">
<path d="M33.0726 7.38743C37.5246 17.3476 40 28.3847 40 40C40 51.6152 37.5246 62.6523 33.0726 72.6125M33.0726 7.38743C35.3073 6.91509 37.6246 6.66663 40 6.66663C49.6248 6.66663 58.2968 10.7459 64.3815 17.2698M33.0726 7.38743C25.9417 8.89467 19.6518 12.6816 15.0014 17.9498M6.78249 37.2008C6.70576 38.1237 6.66663 39.0573 6.66663 40C6.66663 48.4544 9.81417 56.1738 15.0014 62.0501M6.78249 37.2008C16.9 32.5768 28.149 30 40 30C51.8509 30 63.1 32.5768 73.2174 37.2008M6.78249 37.2008C7.39391 29.8469 10.3926 23.1709 15.0014 17.9498M15.0014 17.9498C22.0431 22.7499 26.6666 30.835 26.6666 40C26.6666 49.1649 22.0431 57.25 15.0014 62.0501M15.0014 62.0501C19.6518 67.3183 25.9417 71.1053 33.0726 72.6125M33.0726 72.6125C35.3073 73.0848 37.6246 73.3333 40 73.3333C49.6248 73.3333 58.2968 69.254 64.3815 62.7301M64.3815 62.7301C56.7531 58.0378 51.6666 49.6129 51.6666 40C51.6666 30.387 56.7531 21.9621 64.3815 17.2698M64.3815 62.7301C69.9351 56.7756 73.3333 48.7846 73.3333 40C73.3333 39.0573 73.2942 38.1237 73.2174 37.2008M73.2174 37.2008C72.5791 29.5237 69.3391 22.5853 64.3815 17.2698" stroke="#F2F2F2" strokeWidth="1.5"/>
</svg>
