<svg width="80" height="80" viewBox="0 0 80 80" fill="none" xmlns="http://www.w3.org/2000/svg">
<path d="M33.3339 43.3336C29.652 43.3336 26.6672 46.3184 26.6672 50.0003C26.6672 53.6822 29.652 56.6669 33.3339 56.6669C37.0158 56.6669 40.0005 53.6822 40.0005 50.0003C40.0005 46.3184 37.0158 43.3336 33.3339 43.3336ZM33.3339 43.3336C36.0953 43.3336 38.3339 41.095 38.3339 38.3336C38.3339 35.5722 36.0953 33.3336 33.3339 33.3336C30.5724 33.3336 28.3339 35.5722 28.3339 38.3336C28.3339 41.095 30.5724 43.3336 33.3339 43.3336ZM73.3334 40C73.3334 58.4095 58.4096 73.3333 40.0001 73.3333C21.5906 73.3333 6.66675 58.4095 6.66675 40C6.66675 21.5905 21.5906 6.66663 40.0001 6.66663C58.4096 6.66663 73.3334 21.5905 73.3334 40ZM50.0001 45C50.0001 55.1252 42.5382 63.3333 33.3334 63.3333C24.1287 63.3333 16.6667 55.1252 16.6667 45C16.6667 34.8747 24.1287 26.6666 33.3334 26.6666C42.5382 26.6666 50.0001 34.8747 50.0001 45Z" stroke="#F2F2F2" stroke-width="1.5" stroke-linecap="round" stroke-linejoin="round"/>
</svg>
