<svg width="80" height="80" viewBox="0 0 80 80" fill="none" xmlns="http://www.w3.org/2000/svg">
<path d="M68.5259 52.8095L69.2768 52.4751C69.132 52.1498 68.7941 51.9547 68.4399 51.9919L68.5259 52.8095ZM47.8682 71.4096L47.0642 71.2387C46.9901 71.5871 47.1488 71.9435 47.4572 72.1216L47.8682 71.4096ZM10.1405 25.1673L9.40455 24.801H9.40455L10.1405 25.1673ZM9.56899 53.6241L8.8189 53.9604L9.56899 53.6241ZM69.629 55.2872L70.3592 55.6647L69.629 55.2872ZM35.0006 18.0382L34.5175 18.7033L48.4162 28.8013L48.8994 28.1363L49.3826 27.4712L35.4838 17.3732L35.0006 18.0382ZM48.8994 28.1363L48.1176 27.8823L42.8087 44.2212L43.5905 44.4753L44.3724 44.7293L49.6812 28.3903L48.8994 28.1363ZM43.5905 44.4753V43.6532H26.4107V44.4753V45.2973H43.5905V44.4753ZM26.4107 44.4753L27.1925 44.2212L21.8837 27.8823L21.1019 28.1363L20.3201 28.3903L25.6289 44.7293L26.4107 44.4753ZM21.1019 28.1363L21.585 28.8013L35.4838 18.7033L35.0006 18.0382L34.5175 17.3732L20.6187 27.4712L21.1019 28.1363ZM68.5259 52.8095L68.4399 51.9919L51.3542 53.7877L51.4401 54.6052L51.5261 55.4228L68.6118 53.627L68.5259 52.8095ZM51.4401 54.6052L50.6361 54.4343L47.0642 71.2387L47.8682 71.4096L48.6723 71.5806L52.2442 54.7761L51.4401 54.6052ZM35.0006 18.0382H35.8227V7.0777H35.0006H34.1786V18.0382H35.0006ZM48.8994 28.1363L49.1143 28.9297L60.7888 25.7673L60.5739 24.9738L60.359 24.1804L48.6845 27.3428L48.8994 28.1363ZM43.5905 44.4753L42.9408 44.9788L50.7903 55.1088L51.4401 54.6052L52.0899 54.1017L44.2403 43.9717L43.5905 44.4753ZM26.4107 44.4753L25.7503 43.9858L18.2438 54.1158L18.9043 54.6052L19.5648 55.0947L27.0712 44.9647L26.4107 44.4753ZM63.6523 16.9544L62.8848 16.6598L59.8065 24.6792L60.5739 24.9738L61.3413 25.2684L64.4197 17.249L63.6523 16.9544ZM60.5739 24.9738L60.1778 25.6941L71.8095 32.0911L72.2056 31.3708L72.6017 30.6505L60.97 24.2535L60.5739 24.9738ZM40 6.66669V7.48873C55.0437 7.48873 67.7029 17.7071 71.4114 31.583L72.2056 31.3708L72.9998 31.1585C69.1038 16.5815 55.8068 5.84465 40 5.84465V6.66669ZM72.2056 31.3708L71.4114 31.583C72.1287 34.2668 72.5113 37.0881 72.5113 40H73.3334H74.1554C74.1554 36.9435 73.7537 33.9795 72.9998 31.1585L72.2056 31.3708ZM21.1019 28.1363L21.3168 27.3428L10.3554 24.3738L10.1405 25.1673L9.92557 25.9607L20.8869 28.9297L21.1019 28.1363ZM6.66669 40H7.48873C7.48873 34.8012 8.70838 29.8896 10.8764 25.5336L10.1405 25.1673L9.40455 24.801C7.12579 29.3795 5.84465 34.5413 5.84465 40H6.66669ZM10.1405 25.1673L10.8764 25.5336C16.2007 14.836 27.2431 7.48873 40 7.48873V6.66669V5.84465C26.5955 5.84465 14.996 13.5666 9.40455 24.801L10.1405 25.1673ZM9.56899 53.6241L9.48306 54.4416L18.8184 55.4228L18.9043 54.6052L18.9902 53.7877L9.65491 52.8065L9.56899 53.6241ZM9.56899 53.6241L10.3191 53.2877C8.50058 49.2321 7.48873 44.7353 7.48873 40H6.66669H5.84465C5.84465 44.9717 6.9074 49.6973 8.8189 53.9604L9.56899 53.6241ZM40 73.3334V72.5113C33.4182 72.5113 27.2954 70.5563 22.1777 67.1955L21.7265 67.8827L21.2753 68.5698C26.6528 72.1012 33.0878 74.1554 40 74.1554V73.3334ZM21.7265 67.8827L22.1777 67.1955C17.0119 63.8031 12.8708 58.9785 10.3191 53.2877L9.56899 53.6241L8.8189 53.9604C11.5 59.9399 15.8498 65.0068 21.2753 68.5698L21.7265 67.8827ZM18.9043 54.6052L18.1002 54.7761L20.9224 68.0536L21.7265 67.8827L22.5306 67.7118L19.7084 54.4343L18.9043 54.6052ZM69.629 55.2872L70.38 54.9528L69.2768 52.4751L68.5259 52.8095L67.7749 53.1438L68.878 55.6215L69.629 55.2872ZM73.3334 40H72.5113C72.5113 45.3758 71.2072 50.4447 68.8988 54.9097L69.629 55.2872L70.3592 55.6647C72.7855 50.9718 74.1554 45.6447 74.1554 40H73.3334ZM69.629 55.2872L68.8988 54.9097C64.8072 62.8238 57.5602 68.8416 48.8253 71.2994L49.0479 72.0907L49.2706 72.882C58.4507 70.299 66.0618 63.977 70.3592 55.6647L69.629 55.2872ZM49.0479 72.0907L48.8253 71.2994C46.0199 72.0888 43.06 72.5113 40 72.5113V73.3334V74.1554C43.212 74.1554 46.3217 73.7118 49.2706 72.882L49.0479 72.0907ZM47.8682 71.4096L47.4572 72.1216L48.6369 72.8026L49.0479 72.0907L49.459 71.3788L48.2793 70.6977L47.8682 71.4096Z" fill="#F2F2F2"/>
</svg>
