<svg width="80" height="80" viewBox="0 0 80 80" fill="none" xmlns="http://www.w3.org/2000/svg">
<path d="M68.5259 52.8094L69.2769 52.475C69.132 52.1497 68.7942 51.9546 68.44 51.9919L68.5259 52.8094ZM47.8683 71.4096L47.0642 71.2387C46.9902 71.587 47.1489 71.9434 47.4573 72.1215L47.8683 71.4096ZM10.1405 25.1672L9.40461 24.801L9.40461 24.801L10.1405 25.1672ZM9.56905 53.624L8.81896 53.9603L9.56905 53.624ZM69.6291 55.2871L70.3593 55.6647L69.6291 55.2871ZM35.0007 18.0382L34.5175 18.7032L48.4163 28.8013L48.8995 28.1362L49.3827 27.4712L35.4839 17.3731L35.0007 18.0382ZM48.8995 28.1362L48.1177 27.8822L42.8088 44.2212L43.5906 44.4752L44.3724 44.7292L49.6813 28.3902L48.8995 28.1362ZM43.5906 44.4752V43.6532H26.4108V44.4752V45.2972H43.5906V44.4752ZM26.4108 44.4752L27.1926 44.2212L21.8837 27.8822L21.1019 28.1362L20.3201 28.3902L25.629 44.7292L26.4108 44.4752ZM21.1019 28.1362L21.5851 28.8013L35.4839 18.7032L35.0007 18.0382L34.5175 17.3731L20.6187 27.4712L21.1019 28.1362ZM68.5259 52.8094L68.44 51.9919L51.3543 53.7876L51.4402 54.6052L51.5261 55.4227L68.6118 53.6269L68.5259 52.8094ZM51.4402 54.6052L50.6361 54.4343L47.0642 71.2387L47.8683 71.4096L48.6724 71.5805L52.2443 54.7761L51.4402 54.6052ZM35.0007 18.0382H35.8227V7.07764H35.0007H34.1787V18.0382H35.0007ZM48.8995 28.1362L49.1144 28.9297L60.7889 25.7672L60.574 24.9738L60.359 24.1803L48.6845 27.3428L48.8995 28.1362ZM43.5906 44.4752L42.9408 44.9787L50.7904 55.1087L51.4402 54.6052L52.09 54.1017L44.2404 43.9717L43.5906 44.4752ZM26.4108 44.4752L25.7503 43.9858L18.2439 54.1158L18.9044 54.6052L19.5648 55.0946L27.0713 44.9646L26.4108 44.4752ZM63.6523 16.9544L62.8849 16.6598L59.8065 24.6792L60.574 24.9738L61.3414 25.2683L64.4198 17.249L63.6523 16.9544ZM60.574 24.9738L60.1778 25.694L71.8095 32.091L72.2057 31.3707L72.6018 30.6504L60.9701 24.2535L60.574 24.9738ZM40.0001 6.66663V7.48867C55.0438 7.48867 67.7029 17.707 71.4115 31.583L72.2057 31.3707L72.9998 31.1585C69.1039 16.5814 55.8069 5.84459 40.0001 5.84459V6.66663ZM72.2057 31.3707L71.4115 31.583C72.1288 34.2667 72.5114 37.088 72.5114 40H73.3334H74.1555C74.1555 36.9434 73.7538 33.9794 72.9998 31.1585L72.2057 31.3707ZM21.1019 28.1362L21.3168 27.3428L10.3555 24.3738L10.1405 25.1672L9.92563 25.9607L20.887 28.9297L21.1019 28.1362ZM6.66675 40H7.48879C7.48879 34.8011 8.70844 29.8895 10.8765 25.5335L10.1405 25.1672L9.40461 24.801C7.12585 29.3795 5.84471 34.5413 5.84471 40H6.66675ZM10.1405 25.1672L10.8765 25.5335C16.2007 14.836 27.2431 7.48867 40.0001 7.48867V6.66663V5.84459C26.5956 5.84459 14.9961 13.5665 9.40461 24.801L10.1405 25.1672ZM9.56905 53.624L9.48312 54.4415L18.8184 55.4227L18.9044 54.6052L18.9903 53.7876L9.65497 52.8065L9.56905 53.624ZM9.56905 53.624L10.3191 53.2877C8.50064 49.232 7.48879 44.7353 7.48879 40H6.66675H5.84471C5.84471 44.9716 6.90746 49.6973 8.81896 53.9603L9.56905 53.624ZM40.0001 73.3333V72.5113C33.4182 72.5113 27.2955 70.5563 22.1778 67.1955L21.7266 67.8826L21.2753 68.5697C26.6528 72.1011 33.0878 74.1553 40.0001 74.1553V73.3333ZM21.7266 67.8826L22.1778 67.1955C17.0119 63.803 12.8708 58.9784 10.3191 53.2877L9.56905 53.624L8.81896 53.9603C11.5001 59.9398 15.8498 65.0068 21.2753 68.5697L21.7266 67.8826ZM18.9044 54.6052L18.1003 54.7761L20.9225 68.0535L21.7266 67.8826L22.5307 67.7117L19.7084 54.4343L18.9044 54.6052ZM69.6291 55.2871L70.38 54.9528L69.2769 52.475L68.5259 52.8094L67.7749 53.1437L68.8781 55.6215L69.6291 55.2871ZM73.3334 40H72.5114C72.5114 45.3758 71.2073 50.4446 68.8989 54.9096L69.6291 55.2871L70.3593 55.6647C72.7855 50.9717 74.1555 45.6446 74.1555 40H73.3334ZM69.6291 55.2871L68.8989 54.9096C64.8073 62.8237 57.5602 68.8416 48.8254 71.2994L49.048 72.0907L49.2707 72.882C58.4507 70.2989 66.0618 63.977 70.3593 55.6647L69.6291 55.2871ZM49.048 72.0907L48.8254 71.2994C46.02 72.0887 43.06 72.5113 40.0001 72.5113V73.3333V74.1553C43.2121 74.1553 46.3218 73.7117 49.2707 72.882L49.048 72.0907ZM47.8683 71.4096L47.4573 72.1215L48.637 72.8026L49.048 72.0907L49.459 71.3788L48.2793 70.6977L47.8683 71.4096Z" fill="#F2F2F2"/>
</svg>
