<svg width="80" height="80" viewBox="0 0 80 80" fill="none" xmlns="http://www.w3.org/2000/svg">
<path d="M11.3417 34.3359L49.4469 56.3359M60.0001 45.3905C51.7501 59.68 36.2982 63.4605 24.0221 56.3729C11.746 49.2853 7.2941 34.0133 15.5441 19.7239C23.7941 5.43445 39.2459 1.65387 51.5221 8.74151C63.7982 15.8291 68.2501 31.1011 60.0001 45.3905ZM20.9721 54.3224L26.9501 57.8342L19.6186 75L10.0923 69.5L20.9721 54.3224ZM70.0001 66.6667C70.0001 70.3486 67.0153 73.3334 63.3334 73.3334C59.6515 73.3334 56.6667 70.3486 56.6667 66.6667C56.6667 62.9848 59.6515 60 63.3334 60C67.0153 60 70.0001 62.9848 70.0001 66.6667Z" stroke="#F2F2F2" strokeWidth="1.5" strokeLinejoin="round"/>
</svg>
