<svg width="80" height="80" viewBox="0 0 80 80" fill="none" xmlns="http://www.w3.org/2000/svg">
<path d="M28.0543 51.9565C29.6229 50.3879 43.375 46.0639 51.6246 44.8854M28.0543 51.9565C29.6229 50.3879 33.9469 36.6358 35.1254 28.3863M28.0543 51.9565L24.5163 55.4895M48.1186 8.32116L71.6888 31.8914M38.6905 17.7493L62.2607 41.3195M72.2771 15.9807L46.3499 41.9079M64.0275 7.73108L38.1003 33.6583M68.123 37.8145C59.6616 46.2759 46.9983 47.3311 39.8387 40.1715C32.6791 33.0119 33.7344 20.3486 42.1957 11.8873C50.6571 3.42589 63.3204 2.37062 70.48 9.53023C77.6396 16.6898 76.5843 29.3531 68.123 37.8145ZM20.1466 56.0888L18.4967 56.3245C17.0687 56.5285 15.7454 57.1901 14.7254 58.2101L5.69018 67.2453C4.38843 68.5471 4.38843 70.6576 5.69018 71.9594L8.0472 74.3164C9.34895 75.6181 11.4595 75.6181 12.7612 74.3164L21.7965 65.2811C22.8165 64.2612 23.4781 62.9379 23.6821 61.5099L23.9178 59.86C24.2321 57.6601 22.3465 55.7745 20.1466 56.0888Z" stroke="#F2F2F2" strokeWidth="1.5" strokeLinecap="round" strokeLinejoin="round"/>
</svg>
