<svg width="80" height="80" viewBox="0 0 80 80" fill="none" xmlns="http://www.w3.org/2000/svg">
<path d="M43.3435 6.83221C42.2439 6.7227 41.1285 6.66663 40.0001 6.66663C24.0399 6.66663 10.6996 17.8835 7.43233 32.864M43.3435 6.83221C60.1831 8.50928 73.3334 22.7189 73.3334 40C73.3334 40.6445 73.3151 41.2848 73.279 41.9203M43.3435 6.83221C53.9616 21.501 51.4049 41.651 73.279 41.9203M73.279 41.9203C72.4171 57.0957 61.4037 69.5548 46.923 72.6134M46.923 72.6134C44.6897 73.0852 42.3738 73.3333 40.0001 73.3333C21.5906 73.3333 6.66675 58.4095 6.66675 40C6.66675 37.5506 6.93092 35.163 7.43233 32.864M46.923 72.6134C46.8542 42.7012 22.1305 48.1869 7.43233 32.864" stroke="#F2F2F2" strokeWidth="1.5" strokeLinecap="round" strokeLinejoin="round"/>
</svg>
