<svg width="80" height="80" viewBox="0 0 80 80" fill="none" xmlns="http://www.w3.org/2000/svg">
<path d="M40.0008 40.0015C46.0031 40.0015 51.6349 41.5879 56.4997 44.3644M40.0008 40.0015C36.9997 45.1994 32.8101 49.2835 27.9734 52.1083M40.0008 40.0015C36.9997 34.8034 35.5578 29.1331 35.5298 23.532M56.4997 44.3644C55.8762 45.7055 55.1882 47.0305 54.4347 48.3356C53.6814 49.6404 52.8781 50.8983 52.0288 52.1085C45.2182 61.8121 35.4423 68.4413 24.6634 71.4702M56.4997 44.3644C62.1954 47.6152 66.8397 52.4972 69.7964 58.3742M27.9734 52.1083C27.1239 50.898 26.3205 49.6398 25.567 48.3348C18.7741 36.5691 17.3065 23.1902 20.4164 10.989M27.9734 52.1083C22.3098 55.4162 15.7589 56.9975 9.19023 56.6193M35.5298 23.532C35.5003 17.6174 37.0476 11.7799 40.0007 6.65726C40.3212 6.10124 40.6583 5.55365 41.0117 5.01529M35.5298 23.532C37.0028 23.4015 38.494 23.3348 40.0009 23.3348C53.5855 23.3348 65.9048 28.7523 74.9161 37.5447M20.4164 10.989C11.1152 17.2802 5.00098 27.9265 5.00098 40.001C5.00098 46.0153 6.51798 51.6754 9.19023 56.6193M20.4164 10.989C26.0056 7.20871 32.7454 5.00098 40.001 5.00098C40.339 5.00098 40.676 5.00577 41.0117 5.01529M41.0117 5.01529C59.0541 5.52694 73.6785 19.693 74.9161 37.5447M74.9161 37.5447C74.9724 38.3562 75.001 39.1752 75.001 40.001C75.001 46.7398 73.0965 53.0338 69.7964 58.3742M69.7964 58.3742C63.6304 68.3523 52.5921 75.001 40.001 75.001C34.4997 75.001 29.2949 73.7318 24.6634 71.4702M24.6634 71.4702C18.0844 68.2577 12.6622 63.043 9.19023 56.6193" stroke="#F2F2F2" strokeWidth="1.5" strokeLinecap="round"/>
</svg>
