<?xml version="1.0" encoding="utf-8"?>
<!-- Generator: Adobe Illustrator 28.0.0, SVG Export Plug-In . SVG Version: 6.00 Build 0)  -->
<svg version="1.1" id="圖層_1" xmlns="http://www.w3.org/2000/svg" xmlns:xlink="http://www.w3.org/1999/xlink" x="0px" y="0px"
	 viewBox="0 0 800 447.5" style="enable-background:new 0 0 800 447.5;" xml:space="preserve">
<style type="text/css">
	.st0{fill:#FFFFFF;stroke:#F3F3F3;stroke-width:13.79;stroke-miterlimit:55.17;}
</style>
<g id="_圖層_1">
	<path class="st0" d="M55.2,6.9h689.7c26.7,0,48.3,17.4,48.3,38.9v355.8c0,21.5-21.6,38.9-48.3,38.9H55.2
		c-26.7,0-48.3-17.4-48.3-38.9V45.8C6.9,24.3,28.5,6.9,55.2,6.9z"/>
</g>
<g id="_圖層_2">
	<path d="M217.7,134.3c-6.8,8.1-17.6,14.5-28.5,13.6c-1.3-11,4-22.6,10.2-29.8c6.8-8.3,18.6-14.2,28.2-14.7
		C228.8,114.8,224.3,126,217.7,134.3L217.7,134.3z M227.5,150c-15.7-0.9-29.1,9-36.6,9s-19-8.6-31.4-8.3
		c-16.1,0.2-31.1,9.5-39.4,24.2c-17,29.4-4.4,73,11.9,97c8,11.9,17.6,24.9,30.3,24.4c11.9-0.5,16.7-7.9,31.1-7.9s18.7,7.9,31.4,7.7
		c13.1-0.2,21.3-11.9,29.3-23.7c9.1-13.5,12.9-26.6,13.1-27.3c-0.2-0.2-25.3-9.9-25.5-39.1c-0.2-24.4,19.7-36.1,20.7-36.8
		C251.2,152.3,233.6,150.5,227.5,150L227.5,150L227.5,150z M318.2,117v177.9h27.3v-60.8h37.8c34.5,0,58.8-24,58.8-58.7
		S418.3,117,384.2,117L318.2,117L318.2,117L318.2,117z M345.5,140.2H377c23.7,0,37.2,12.8,37.2,35.3s-13.5,35.4-37.4,35.4h-31.4
		L345.5,140.2L345.5,140.2L345.5,140.2z M492,296.3c17.2,0,33.1-8.8,40.3-22.7h0.6v21.4h25.3v-88.6c0-25.7-20.3-42.2-51.6-42.2
		c-29,0-50.4,16.8-51.3,39.8h24.6c2-11,12.1-18.1,25.8-18.1c16.7,0,26.1,7.9,26.1,22.4v9.8l-34.1,2.1c-31.7,1.9-48.9,15.1-48.9,37.9
		C448.9,280.7,466.6,296.3,492,296.3L492,296.3L492,296.3z M499.4,275.2c-14.6,0-23.8-7.1-23.8-17.9c0-10.8,8.9-17.7,26-18.7
		l30.3-1.9v10C531.8,263.3,517.9,275.1,499.4,275.2L499.4,275.2L499.4,275.2z M591.9,343.3c26.6,0,39.2-10.3,50.1-41.4l48-136.1
		h-27.8l-32.2,105.1h-0.6l-32.2-105.1h-28.6L615,295.4l-2.5,7.9c-4.2,13.3-10.9,18.5-23,18.5c-2.1,0-6.3-0.2-8-0.5v21.4
		C583.1,343.1,589.9,343.3,591.9,343.3L591.9,343.3z"/>
</g>
</svg>
