<?xml version="1.0" encoding="UTF-8"?>
<svg xmlns="http://www.w3.org/2000/svg" viewBox="0 0 800.01 447.46">
  <defs>
    <style>
      .cls-1 {
        fill: #ef8200;
        fill-rule: evenodd;
      }

      .cls-2 {
        fill: #00488e;
      }

      .cls-3 {
        fill: #fff;
        stroke: #f3f3f3;
        stroke-miterlimit: 55.17;
        stroke-width: 13.79px;
      }

      .cls-4 {
        fill: #2b883a;
      }
    </style>
  </defs>
  <g id="_圖層_1" data-name="圖層_1">
    <g id="_圖層_1-2" data-name="_圖層_1">
      <path class="cls-3" d="M55.17,6.89h689.66c26.66,0,48.28,17.42,48.28,38.92v355.83c0,21.49-21.61,38.92-48.28,38.92H55.17c-26.66,0-48.28-17.42-48.28-38.92V45.81c.01-21.5,21.62-38.92,48.28-38.92Z"/>
    </g>
  </g>
  <g id="_圖層_2" data-name="圖層_2">
    <g>
      <g>
        <path class="cls-4" d="M332.75,300.86c.14,1.19.21,2.13.87,2.66.46.28,1.03.35,1.69.24.67-.16,1.24-.5,1.65-1.06.71-.98.27-5.1-.75-11.04-.13-.73-.56-1.29-1.14-1.48-.67-.21-1.18-.13-1.82.12-.79.31-1.32.78-1.49,1.45-.18.7.18,2.89.4,4.57l.03.26-8.61.79c6.33-7.51,11.97-14.78,14.2-19.58.11-.24.18-.79.05-1.18-.17-.51-.56-.88-1.15-1.12-.59-.24-1.19-.22-1.81.06-.65.28-1.19.79-1.62,1.53-1.81,3.11-3.8,6.1-5.96,8.97l-.24.29c-.95-1.17-2.12-2.6-2.66-3.18,4.66-6.41,6.94-10.25,6.94-11.51,0-.68-.45-1.01-1-1.3-.57-.29-1.22-.33-1.85-.15-.61.17-1.22.74-1.65,1.51-1.73,3.07-3.49,5.92-5.28,8.56-.11-.04-.18-.08-.22-.12-.56-.39-1.21-.53-1.95-.41-.63.16-1.16.37-1.65,1.06-.43.61-.6,1.22-.59,1.77.03.63.35,1.14.95,1.53,1.65,1.4,3.89,3.77,5.74,6.18-2.18,2.45-4.49,5.67-6.39,7.56l-.59.05h-1.02c-.77.04-1.44.33-2.03.88-.46.51-.73,1.08-.82,1.71-.02.71.17,1.24.58,1.59.44.39,1.07.55,1.88.47l6.53-.65.69-.07c-1.51,7.64-2.95,14.85-4.48,22.58-.16.82-.07,1.53.32,2.01.36.43.94.68,1.61.65.76-.04,1.37-.29,1.87-.71.62-.51,1.01-1.16,1.16-1.95,1.56-7.89,3.03-15.27,4.58-23.1l4.98-.45Z"/>
        <path class="cls-4" d="M318.55,306.68c.15-.75.12-1.38-.3-1.83-.33-.36-.79-.59-1.44-.59s-1.21.26-1.68.65c-.48.39-.81.98-1.01,1.77-1.46,5.55-2.79,9.65-4.36,13.54-.31.75-.35,1.38-.13,1.89.27.47.67.83,1.25.94.66.13,1.19,0,1.74-.35.99-.64,2.84-5.48,5.88-15.79l.05-.24Z"/>
        <path class="cls-4" d="M331.53,304.67c-.57.09-1.05.34-1.55.88-.36.39-.57.96-.64,1.71l-.23,6.71c-.02.71.17,1.24.58,1.59.42.28.92.33,1.5.29.64-.04,1.23-.27,1.64-.74.37-.47.61-.98.65-1.79l.23-6.71c.02-.71-.17-1.24-.58-1.59-.39-.32-.91-.46-1.6-.35Z"/>
        <path class="cls-4" d="M346.08,313.27c.68-.69,1.04-1.37,1.07-2.04.02-.63-.19-1.17-.65-1.61-.55-.41-1.13-.56-1.76-.46-.66.1-1.33.47-2,1.12-3.84,4.14-7.42,6.48-12.73,9-1.72.66-2.5,1.81-2.03,3.37.18.61.61,1.02,1.17,1.21,1.4.49,4.54-1.09,9.56-4.45,2.47-1.7,4.27-3.09,7.38-6.14Z"/>
        <path class="cls-4" d="M370.49,291.75h-7.54l7.1-15.91c.28-.72.2-1.62-.24-2.42-.47-.86-1.18-1.28-2.15-1.24h-18.06c-.94,0-1.66.05-2.48.52-.94.51-1.46,1.33-1.83,2.2l-4.04,8.91c-.31.75-.26,1.49.15,2.24.49.75,1.15,1.14,1.98,1.18h16.75l-2.03,4.52h-17.4c-.76,0-1.38.22-1.86.65-.49.47-.82,1.02-.99,1.65-.14.71-.03,1.28.32,1.71.32.39.86.61,1.61.65h12.03l-4.53,22.87c-.15.75-.43,1.28-.85,1.59-.33.28-.68.41-1.04.41-.48,0-1.48-.21-3.41-.59-1.01-.2-1.69-.04-2.12.12-.64.24-1.17.7-1.47,1.36-.29.63-.38,1.34-.21,1.92.38,1.3,3.33,1.95,7.78,2.15.85.04,1.91-.14,2.68-.61,1.89-1.06,2.84-2.87,3.36-5.11l2.63-13.28c1.68,6.61,4.17,11.8,7.37,15.64.52.63,1.07.94,1.79.94.64,0,1.31-.26,2.01-.77.62-.51,1.02-1.1,1.19-1.77.11-.75-.1-1.42-.62-2.01-3.19-4.05-5.5-8.16-6.95-12.33-1.03-2.92-1.62-6.44-1.77-10.53h11.93c.72,0,1.32-.24,1.82-.71.49-.47.82-1.02.99-1.65.14-.71.03-1.28-.32-1.71-.32-.39-.84-.59-1.56-.59ZM347.55,282.81c-.31,0-.48-.28-.48-.5,0-.27.16-.56.3-.97l1.31-2.95c.23-.53.4-.94.72-1.24.32-.29.91-.53,1.48-.53h12.74c.39.04.66.28.82.71.09.35-.11.75-.29,1.18l-2,4.31h-14.6Z"/>
        <path class="cls-4" d="M343.69,307.48c.58.08,1.18-.03,1.79-.35.61-.36,1.16-1,1.4-1.62.31-.99-.51-2.71-3.11-6.59-.4-.6-.85-.93-1.58-.93-.59,0-1.13.12-1.75.64-.6.49-.89,1.1-1.01,1.68-.17.65-.04,1.27.39,1.85,1.08,1.77,1.77,2.41,2.55,4.06.3.68.74,1.09,1.32,1.26Z"/>
        <path class="cls-4" d="M370.26,298.53c-.57-.35-1.17-.43-1.81-.24-.63.16-1.22.61-1.76,1.36-1.02,1.34-2.08,2.44-4.15,4.41-.64.63-1.03,1.28-1.16,1.95-.08.59.09,1.12.52,1.59.47.51,1.24.81,1.85.68,2.01-.42,3.38-1.98,6.69-6.39.54-.71.77-1.38.7-2.01-.04-.59-.33-1.04-.87-1.36Z"/>
        <path class="cls-4" d="M486.6,287.82c.39.63.95,1.09,1.68,1.18.63.08,1.31-.09,1.96-.53.69-.47,1.14-1.02,1.34-1.65.18-.71.1-1.4-.25-2.07-1.01-1.77-2.3-3.68-3.89-5.72-1.61-2.16-2.75-3.64-3.43-4.43-.52-.59-1.15-.86-1.87-.83-.65.04-1.28.33-1.91.89-.6.59-.94,1.2-1.02,1.83-.1.71.13,1.34.7,1.89,2.49,2.71,4.72,5.86,6.68,9.44Z"/>
        <path class="cls-4" d="M473.71,291.01c-.07.63.17,1.24.77,1.83,2.7,2.87,4.91,5.7,6.63,8.5.39.63.96,1.12,1.74,1.18.71.06,1.35-.14,1.98-.65.7-.56,1.07-1.02,1.24-1.71.21-.86-.75-2.68-2.75-5.43-2.41-2.95-4.02-4.88-4.84-5.78-.54-.51-1.24-.84-1.94-.77-.67.07-1.28.43-1.86.94-.6.63-.88,1.11-.97,1.89Z"/>
        <path class="cls-4" d="M466.86,308.07c.61.12,1.26,0,1.92-.35.72-.39,1.2-.91,1.44-1.53.28-.83.28-1.51-.01-2.07-1.86-3.3-4.16-7.2-6.9-11.68.05-.24.09-.43.12-.59h6.94c.76,0,1.43-.25,2.01-.77.58-.51.94-1.12,1.08-1.83.15-.75.04-1.38-.34-1.89-.4-.39-.98-.61-1.72-.65h-6.94c.63-3.19,1.25-6.33,1.87-9.44,2.27-.39,4.5-.88,6.69-1.48.93-.27,1.62-.71,2.05-1.3.48-.59.67-1.26.58-2.01-.01-.75-.31-1.26-.89-1.53-.58-.27-1.31-.31-2.19-.12-4.42,1.18-10.27,2.05-17.56,2.6-.88.04-1.64.32-2.26.83-.58.51-.92,1.14-1.03,1.89-.11.75.07,1.36.54,1.83.42.47,1.1.67,2.04.59,2.3-.16,4.53-.33,6.69-.53-.57,2.87-1.14,5.76-1.72,8.68h-8.19c-.76,0-1.44.24-2.05.71-.58.51-.94,1.12-1.08,1.83-.15.75-.03,1.38.34,1.89.38.47.98.71,1.77.71h7.66c-3.37,5.55-7.74,10.98-13.09,16.29-.64.63-1.02,1.34-1.14,2.13,0,.63.22,1.18.69,1.65.54.47,1.15.65,1.81.53,1.38-.12,4.65-3.54,9.81-10.27.17-.27.36-.53.57-.77-1.49,7.55-3,15.15-4.51,22.78-.17.86-.07,1.55.31,2.07.43.47,1,.71,1.71.71.77-.04,1.43-.29,2.01-.77.62-.51,1.01-1.18,1.18-2.01,1.62-8.18,3.24-16.37,4.86-24.55,1.42,2.52,2.59,4.86,3.52,7.02.31.82.8,1.3,1.45,1.42Z"/>
        <path class="cls-4" d="M500.27,270.12c-.76,0-1.44.24-2.05.71-.49.47-.84,1.1-1.03,1.89-2.24,11.33-4.49,22.68-6.74,34.05l-23.13,3.25c-.91.16-1.66.51-2.24,1.06-.46.51-.71,1.18-.76,2.01-.02.71.22,1.28.74,1.71.45.36,1.12.47,2.02.36l22.33-3.13c-.79,4.01-1.6,8.07-2.41,12.16-.17.86-.07,1.55.31,2.07.43.47,1,.71,1.72.71.76-.04,1.43-.29,2.01-.77.62-.51,1.01-1.18,1.18-2.01.85-4.29,1.7-8.6,2.56-12.92l3.83-.59c.91-.16,1.66-.51,2.25-1.06.46-.51.7-1.14.73-1.89s-.2-1.32-.68-1.71c-.44-.39-1.13-.55-2.06-.47l-3.02.47c2.2-11.13,4.4-22.23,6.59-33.28.15-.75,0-1.38-.46-1.89-.39-.47-.94-.71-1.65-.71Z"/>
        <path class="cls-4" d="M531.98,299.1c.16-.63.13-1.28-.09-1.95-.35-.63-.82-1-1.39-1.12-.71-.04-1.42.14-2.14.53-.73.47-1.67,1-2.83,1.59l2.18-11.04h4.07c.76,0,1.43-.25,2.01-.77.58-.51.94-1.12,1.08-1.83.15-.75.03-1.38-.34-1.89-.4-.39-.98-.61-1.72-.65h-4.07l1.83-9.26c.17-.87.05-1.57-.36-2.13-.43-.47-1-.71-1.72-.71-.77.04-1.43.3-2.01.77-.58.51-.96,1.2-1.13,2.07l-1.83,9.26h-5.32c-.76,0-1.44.24-2.05.71-.58.51-.94,1.12-1.08,1.83-.15.75-.03,1.38.34,1.89.39.47.98.71,1.77.71h5.32l-2.72,13.75c-2.38.94-4.72,1.77-7.01,2.48-.81.28-1.47.68-1.8,1.24-.37.63-.54,1.33-.41,2.07.11.64.5,1.2,1.08,1.48s1.26.28,2.03,0c1.68-.63,3.36-1.24,5.03-1.83l-2.48,12.51c-.15.75-.44,1.32-.88,1.71-.47.35-1.61.35-3.41,0-1.58-.47-3.02.11-3.81,1.71-.3.62-.41,1.35-.15,1.95.41.94,1.83,1.55,4.24,1.83,2.28.16,4-.06,5.15-.65,2.03-1.18,3.29-2.91,3.78-5.19l3.2-16.17c4.73-2.16,7.27-3.8,7.61-4.9Z"/>
        <path class="cls-4" d="M571.25,277.2c-.39-.45-.98-.61-1.72-.65h-14.12c.26-1.3.51-2.58.76-3.84.15-.75.03-1.37-.46-1.89-.42-.44-.94-.66-1.65-.71-.76-.06-1.56.21-2.05.71-.48.48-1.09,2.38-1.79,5.72h-12.26c-.76,0-1.44.24-2.05.71-.58.51-.94,1.12-1.08,1.83-.15.75-.03,1.38.34,1.89.39.47.98.71,1.77.71h12.26c-.5,2.52-1.02,5.13-1.55,7.85h-10.35c-.76,0-1.44.22-2.04.65-.57.47-.94,1.1-1.09,1.89-.14.71-.02,1.32.36,1.83.38.51.96.77,1.76.77h21.65c.76,0,1.2.16,1.34.47.15.47-1.07,2.4-3.66,5.78-2.3,2.95-5.28,5.94-8.95,8.97-2.76-2.99-5.27-6.92-7.53-11.8-.38-.71-.97-1.23-1.66-1.3-.63-.06-1.38.13-2.02.53-.71.44-1.14,1.02-1.34,1.65-.26.71-.2,1.42.18,2.12,2.67,4.64,5.42,8.58,8.25,11.8-1.27.75-2.6,1.53-3.99,2.36-3.39,1.81-8.15,3.68-14.27,5.61-.8.24-1.52.57-1.92,1.24-.38.64-.58,1.34-.54,2.12.02.71.33,1.24.94,1.59.57.35,1.27.41,2.12.18,5.64-1.69,10.64-3.7,15.01-6.02,2.07-1.18,4.07-2.42,6-3.72,4.85,4.48,9.45,7.67,13.78,9.56.82.27,1.66.31,2.38.06.7-.25,1.31-.79,1.86-1.54.43-.75.57-1.46.42-2.12-.13-.75-.64-1.3-1.53-1.65-4.99-2.16-9.22-4.68-12.68-7.55,6.04-5.55,10.89-11.2,14.6-16.94,1.53-2.36,1.9-3.28,1.9-3.84,0-.75-.27-1.38-.76-1.89-.5-.51-1.24-.79-2.23-.83h-10.77c.52-2.64,1.04-5.25,1.55-7.85h14.12c.76,0,1.43-.25,2.01-.77.58-.51.94-1.12,1.08-1.83.15-.75.07-1.4-.34-1.89Z"/>
        <path class="cls-4" d="M434.56,272.42h-41.93c-1.08,0-1.83.3-2.65,1-.78.71-1.28,1.51-1.5,2.42l-3.84,19.46c-.25,1.06-.06,2.08.44,2.89.4.64,1.18,1.18,2.22,1.18h11.94c-5.78,5.13-12.43,9.05-19.95,11.51-.81.28-1.42.73-1.82,1.36-.4.63-.54,1.34-.42,2.12.13.75.45,1.26.95,1.54,2.01.71,7.27-1.48,15.77-6.55l2.25-1.62c-1.35,5.29-4.69,9.34-10.03,12.14-.68.39-1.3.67-1.85.88-1.03.4-1.65.95-2,1.65-.31.62-.46,1.33-.28,2.01.21.76.62,1.21,1.27,1.42,1.5.46,4.18-.67,8.03-3.42,5.32-3.93,8.79-9.25,10.39-15.93l.7-3.56c1.65-1.46,2.91-2.66,3.76-3.54h4.83c.11.13.24.3.3.41,1.21,1.75,2.57,3.41,4.07,5-1.27,6.4-2.55,12.86-3.84,19.39-.17.86-.09,1.57.31,2.07.42.53,1,.75,1.71.71.8-.04,1.43-.29,2.01-.77.62-.51,1.01-1.18,1.18-2.01,1-5.07,2.01-10.17,3.02-15.27l.47.44c2.99,2.4,6.26,4.45,9.79,6.14.8.39,1.58.45,2.36.18.68-.24,1.32-.73,1.91-1.48.42-.71.6-1.42.54-2.12-.13-.75-.62-1.32-1.46-1.71-6.21-2.73-11.38-6.47-15.25-10.98h11.24c1-.04,2-.45,3-1.24,1.04-.83,1.67-1.77,1.88-2.83l3.84-19.46c.15-.98-.13-1.76-.61-2.36-.6-.75-1.51-1.06-2.78-1.06ZM392.99,279.33c.08-.63.34-1.14.78-1.53.29-.27.82-.43,1.59-.47h15.07l-.89,4.54-.31,1.58h-17.05l.81-4.12ZM390.58,293.95c-.22-.27-.29-.75-.2-1.42l.83-4.18h17.05l-1.21,6.13h-15.08c-.64,0-1.1-.18-1.39-.53ZM428.75,293.95c-.45.38-1.02.53-1.66.53h-14.83l1.21-6.13h16.81l-.83,4.18c-.12.65-.33,1.1-.7,1.42ZM432.05,279.33l-.81,4.12h-16.81l.31-1.58.89-4.54h14.84c.64,0,1.12.2,1.44.59.22.28.27.75.14,1.42Z"/>
      </g>
      <g>
        <path class="cls-2" d="M352.37,184.94s1.51-8.27.76-21.24c-.83-14.38-13.75-42.17-52.99-43.28-56.14-1.59-105.4,40.84-108.98,111.92-1.53,30.3,20.36,56.43,68.63,54.94,43.71-1.35,72.86-27.38,83.3-65.76h-48.08s-7.07,25.11-29.69,26.23c-18.37.91-21.61-9.92-21.88-21.48-.37-15.69,10.14-68.57,45.89-66.4,18.74,1.14,13.92,25.06,13.92,25.06h49.12Z"/>
        <path class="cls-2" d="M172.14,243.12h-50.02l5.92-22.17h45.08c1.86-13.08,5.23-25.11,9.87-36.01h-45.32l5.31-19.88h51.11c11.06-16.73,25.65-29.62,42.37-38.12,1.36-.69.85-2.76-.68-2.76h-126.84c-5.74,0-10.77,3.86-12.25,9.41l-35.91,134.4c-2.15,8.05,3.92,15.96,12.25,15.96h119.01c1.23,0,1.73-1.56.74-2.29-12.9-9.59-19.66-23.32-20.64-38.54Z"/>
      </g>
      <path class="cls-4" d="M485.1,195.67c-14.26,5.99-24.22,15.69-27.84,30.28-3.91,15.78,5.2,29.68,27.91,30.06,13.44.23,28.5-4.32,36.23-10.46l1.1-.86-2.01,11.42h33.25c.26-5.67.28-13.08,3.43-24.78,3.25-12.04,9.64-33.21,10.39-35.67,0,0-82.45,0-82.45,0ZM530.77,214.59c-.73,2.24-1.24,3.92-2.55,6.53-4.29,8.53-12.17,12.72-24.71,13.51-11.42.73-15.08-5.77-13.54-11.33,3.29-11.86,19.85-15.7,42.18-15.7,0,0-.66,4.75-1.39,6.99Z"/>
      <path class="cls-4" d="M365.19,195.67l-.36,1.35-15.56,58.97h33.72l10.73-40.67c2.02.37,7.63.83,9.62.86,19.31.32,37.14-4.94,51.02-15.24,1.65-1.2,3.2-2.53,4.7-3.92.47-.44.94-.89,1.4-1.35h-95.27Z"/>
      <path class="cls-4" d="M644.6,195.67l-12.82,27.58c-3.15,6.22-3.51,7.27-6.33,13.07h-.86l-4.72-40.65h-33.04l12.47,61.45c.4,2.57.21,4.07-.13,5.36-.34,1.29-1.74,3.94-3.11,5.78-3.63,4.84-6.11,8.42-15.25,14.5l-6.6,38.13c6.43-2.24,13.7-5.76,21.22-11.15,14.58-10.52,29.02-27.04,55.09-68.89l21.25-34.4,6.66-10.79h-33.84Z"/>
      <path class="cls-4" d="M402.06,184.96l9.88-37.46c2.53-.64,5.83-1.07,12.27-1.07,16.52,0,23.66,7.94,20.15,21.24-1.94,7.37-6.24,13.26-12.25,17.29h37.13c3.42-5.53,6.06-11.73,7.81-18.36,3.74-14.16.9-26.18-6.62-33.48-7.62-7.73-20.98-11.59-41.15-11.59s-34.46,1.29-45,3l-16.32,60.42h34.11Z"/>
      <path class="cls-4" d="M485.46,182.27c2.54-2.96,10.18-6.49,18.23-8.75,6.35-1.79,12.92-2.65,17.65-2.69,18.38-.17,18.61,7.94,17.08,13.74l-.1.39h30.5c2.97-20.75-4.99-36.66-35.73-36.66-17.41,0-32.07,4.46-40.87,8.33l-6.75,25.64Z"/>
      <polygon class="cls-4" points="618.11 184.96 614.75 150.87 578.56 150.87 585.13 184.96 618.11 184.96"/>
      <g>
        <path class="cls-1" d="M630.35,191.68h-264.13l-1.41,5.42h348.53c2.5,0,4.77-1.47,5.79-3.75l14.89-33.22h-89.53l-14.14,31.55Z"/>
        <path class="cls-1" d="M736.1,143.19h-79.91c-2.5,0-4.77,1.47-5.79,3.75l-2.46,5.49h89.53l1.89-4.21c1.06-2.37-.67-5.04-3.26-5.04Z"/>
      </g>
    </g>
  </g>
</svg>