<?xml version="1.0" encoding="UTF-8"?>
<svg xmlns="http://www.w3.org/2000/svg" viewBox="0 0 800 447.46">
  <defs>
    <style>
      .cls-1, .cls-2, .cls-3 {
        stroke-width: 0px;
      }

      .cls-2 {
        fill: #08bf5b;
      }

      .cls-3, .cls-4 {
        fill: #fff;
      }

      .cls-4 {
        stroke: #f3f3f3;
        stroke-miterlimit: 55.17;
        stroke-width: 13.79px;
      }
    </style>
  </defs>
  <g id="_圖層_1" data-name="圖層 1">
    <path class="cls-4" d="m55.17,6.9h689.66c26.66,0,48.28,17.42,48.28,38.92v355.83c0,21.49-21.61,38.92-48.28,38.92H55.17c-26.66,0-48.28-17.42-48.28-38.92V45.82C6.9,24.32,28.51,6.9,55.17,6.9Z"/>
  </g>
  <g id="_圖層_3" data-name="圖層 3">
    <g>
      <g>
        <rect class="cls-1" x="149.42" y="167.72" width="25.72" height="112.05" rx="4.59" ry="4.59"/>
        <path class="cls-1" d="m130.59,254.05h-44.54v-81.74c0-2.54-2.06-4.59-4.59-4.59h-16.53c-2.54,0-4.59,2.06-4.59,4.59v102.86c0,2.54,2.06,4.59,4.59,4.59h65.67c2.54,0,4.59-2.06,4.59-4.59v-16.53c0-2.54-2.06-4.59-4.59-4.59Z"/>
        <path class="cls-1" d="m376.28,193.43c2.54,0,4.59-2.06,4.59-4.59v-16.53c0-2.54-2.06-4.59-4.59-4.59h-65.67c-2.54,0-4.59,2.06-4.59,4.59v102.86c0,2.54,2.06,4.59,4.59,4.59h65.67c2.54,0,4.59-2.06,4.59-4.59v-16.53c0-2.54-2.06-4.59-4.59-4.59h-44.54v-17.45h44.54c2.54,0,4.59-2.06,4.59-4.59v-16.53c0-2.54-2.06-4.59-4.59-4.59h-44.54v-17.45h44.54Z"/>
        <path class="cls-1" d="m283.97,167.72h-16.53c-2.54,0-4.59,2.06-4.59,4.59v59.52l-43.26-61.86c-1.23-1.75-3.06-2.25-5.09-2.25-.26-.04-.52,0-.79,0h-16.53c-2.54,0-4.59,2.06-4.59,4.59v102.86c0,2.54,2.06,4.59,4.59,4.59h16.53c2.54,0,4.59-2.06,4.59-4.59v-62.16l45.11,64.49c.16.23.34.44.53.64.78.92,1.9,1.53,3.18,1.62h16.86c2.54,0,4.59-2.06,4.59-4.59v-102.86c0-2.54-2.06-4.59-4.59-4.59Z"/>
      </g>
      <g>
        <rect class="cls-2" x="424.04" y="124.74" width="315.63" height="197.99" rx="6.62" ry="6.62"/>
        <g>
          <path class="cls-3" d="m537.83,201.94c0,17.39-13.99,31.39-32.04,31.39h-13.73v25.69c0,1.7-1.38,3.08-3.08,3.08h-14.76c-1.7,0-3.08-1.38-3.08-3.08v-85.38c0-1.7,1.38-3.08,3.08-3.08h31.57c18.05,0,32.04,13.99,32.04,31.39Zm-20.92,0c0-6.67-4.71-11.77-11.12-11.77h-13.73v23.54h13.73c6.41,0,11.12-5.1,11.12-11.77Z"/>
          <path class="cls-3" d="m615.53,198.33v62.14c0,.9-.73,1.62-1.62,1.62h-16.37c-.9,0-1.62-.73-1.62-1.62v-4.52c-4.32,4.97-10.72,7.98-19.49,7.98-17.13,0-31.25-15.04-31.25-34.52s14.12-34.52,31.25-34.52c8.76,0,15.17,3.01,19.49,7.98v-4.53c0-.9.73-1.62,1.62-1.62h16.37c.9,0,1.62.73,1.62,1.62Zm-19.62,31.07c0-9.81-6.54-15.95-15.56-15.95s-15.56,6.15-15.56,15.95,6.54,15.95,15.56,15.95,15.56-6.15,15.56-15.95Z"/>
          <path class="cls-3" d="m680.81,198.42l-15.05,37.92-15.57-37.95c-.42-1.01-1.4-1.68-2.5-1.68h-16.69c-1.15,0-1.94,1.17-1.5,2.24l25.97,63.31-9.46,23.84c-.42,1.06.36,2.22,1.51,2.22h16.7c1.11,0,2.1-.68,2.51-1.71l34.81-87.69c.42-1.06-.36-2.22-1.51-2.22h-16.7c-1.11,0-2.1.68-2.51,1.71Z"/>
        </g>
      </g>
    </g>
  </g>
</svg>