<?xml version="1.0" encoding="UTF-8"?>
<svg id="_圖層_1" data-name="圖層 1" xmlns="http://www.w3.org/2000/svg" viewBox="0 0 514.18 278.5">
  <defs>
    <style>
      .cls-1 {
        fill: none;
        stroke: #f2f2f2;
        stroke-miterlimit: 10;
        stroke-width: 1.5px;
      }
    </style>
  </defs>
  <path class="cls-1" d="M214.43.75c1.04,1.66,3.8,1,5.49,1.02,66.84.72,137.71,16.94,199.45,41.55l29.06,25.43c-47.1-11.56-95.37-19.42-143.99-20.49,83.76,31.41,156.61,87.21,208.99,159.5v1l-50.5,67.98C358.34,131.99,182.29,44.92,2.43,54.74c18.42-13.81,37.69-27.17,57.2-39.29C96.24,7.85,133.48,2.07,171.01,1.79l2.42-1.04h41Z"/>
  <polygon class="cls-1" points="84.43 277.75 117.57 159.89 139.42 159.76 148.93 222.76 166.43 159.75 191.43 159.75 159.43 277.75 134.43 277.75 124.94 220.74 109.43 277.75 84.43 277.75"/>
  <path class="cls-1" d="M1.43,276.75l61.5-117h23.5l-5,118h-25l1-16h-24l-7,16H1.43v-1ZM59.43,237.75l3.5-40.01-18.5,40.01h15Z"/>
  <path class="cls-1" d="M220.43,277.75l59-117h26l-5,117h-25l1-16h-23.5l-8.5,16h-24ZM263.43,237.74c2.95-.49,13.14,1.1,14.56-.93l4.43-40.06-18.99,40.99Z"/>
  <path class="cls-1" d="M188.43,277.75l26-93h-23l6-25h71l-6.94,24.56c-2.26,1.6-16.43-.35-20.57.43-1.16.22-1.93.43-2.33,1.67l-25.16,91.34h-25Z"/>
</svg>