<?xml version="1.0" encoding="UTF-8"?>
<svg id="_圖層_1" data-name="圖層 1" xmlns="http://www.w3.org/2000/svg" viewBox="0 0 236.17 79.53">
  <defs>
    <style>
      .cls-1 {
        fill: none;
        stroke: #f2f2f2;
        stroke-miterlimit: 10;
        stroke-width: 1.5px;
      }
    </style>
  </defs>
  <path class="cls-1" d="M56.17,32.64C72.9,13.64,65.9-.88,40.17,9.16c-4.09,1.6-8.29,5.11-11.53,6.47-.45.19-1.64.26-1.48-.48C55.75-9.24,95.33-3.84,67.58,40.56c-9.36,14.98-39.62,46.31-59.12,36.28-19.37-9.97,2.54-35.74,13.81-43.59,8.3-5.78,33.98-18.93,33.9-.61ZM42.89,28.88c-5.56.96-15.2,7.88-18.71,12.28-2.65,3.33-7.34,10.16-2.6,13.55,8.07,5.76,30.12-12.49,31.4-20.81.94-6.1-5.76-5.77-10.09-5.02Z"/>
  <path class="cls-1" d="M92.16,28.64l2.61-10.06c7.48.49,21.99-2.49,24.94,7,2.73,8.78-6.99,30.02-8.49,39.62-9.68.41-30.97,3.83-32.13-10-1.33-15.92,17.14-21.13,29.96-19.68.5-1.38,1.91-6.88-.39-6.88h-16.5ZM106.15,44.64c-17.31-2.85-24.48,14.06-2.04,10.95l2.04-10.95Z"/>
  <path class="cls-1" d="M235.16,18.64l-2.96,9.54c-3.25,1.67-15.83-1.37-16.96,2.06-1.69,5.12,10.77,8.04,13.93,12.89,5.49,8.43-3.2,22.5-12.5,22.5h-18.5l2.96-9.54c3.59-1.73,17.74,1.47,18.93-2.09,2.17-6.48-8.68-8.22-12.43-12.32-8.09-8.83,1.6-23.05,11.05-23.05h16.5Z"/>
  <path class="cls-1" d="M153.16,18.64l-2.13,9.87c-3.34.91-17.07-1.8-17.81,2.75-.6,3.73,13.23,7.79,15.18,12.64,2.51,6.23-.36,15.82-6.31,19.17-.78.44-7.03,2.57-7.43,2.57h-17.5l2.13-9.87c3.02-1.96,17.2,2.95,19.72-2.83,1.57-6.52-15.2-7.61-15.92-17.81-.37-5.26,2.38-10.48,6.72-13.32.87-.57,6.4-3.16,6.84-3.16h16.5Z"/>
  <path class="cls-1" d="M205.16,18.65l-2.94,9.55c-3.07,1.04-6.33.09-9.47.53-9.15,1.28-15.95,11.34-14.52,20.36,1.71,10.81,17.59,4.21,17.9,8.05l-2.44,7.54c-20.5,4.84-31.9-8.62-23.3-28.3,5.91-13.53,20.72-19.02,34.78-17.71Z"/>
  <path class="cls-1" d="M171.15,18.64l-11.47,46.02c-1.5,2.01-7.92.58-10.52.97l12.1-46.89,9.9-.1Z"/>
</svg>