<?xml version="1.0" encoding="UTF-8"?>
<svg id="_圖層_1" data-name="圖層 1" xmlns="http://www.w3.org/2000/svg" viewBox="0 0 251.4 158.42">
  <defs>
    <style>
      .cls-1 {
        fill: none;
        stroke: #f2f2f2;
        stroke-miterlimit: 10;
        stroke-width: 1.5px;
      }
    </style>
  </defs>
  <path class="cls-1" d="M148.87.76c11.64.31,18.26,7.62,21.01,18.42,7.6,29.92-17.18,73.93-45.15,85.86-12.79,5.46-26.94,4.74-33.54-9.18C76.24,64.34,112.99-.19,148.87.76Z"/>
  <path class="cls-1" d="M18.11,1.43c31.52-5.3,59.71,36.82,64.79,63.73,7.7,40.72-19.55,56.88-51.01,30.01C13.43,79.39-3.25,45.39,1.6,20.93,3.16,13.04,9.69,2.85,18.11,1.43Z"/>
  <polygon class="cls-1" points="164.37 118.19 163.43 123.76 156.37 124.19 156.37 157.19 151.37 157.19 151.37 124.19 140.37 124.19 140.37 157.19 135.37 157.19 135.37 124.19 128.3 123.76 127.37 118.19 164.37 118.19"/>
  <path class="cls-1" d="M87.37,118.19c9.94-1.39,18.39,3.12,15.78,14.29-.56,2.39-3.74,4.89-3.74,5.21s2.66,2.42,3.2,3.75c4.58,11.16-5.13,17.25-15.25,15.75v-39ZM97.11,125.44c-1.02-1.03-3.3-1.3-4.74-1.25v9c4.68,1.49,7.75-4.73,4.74-7.75ZM92.37,151.19c7.1-.44,7.85-7.14,1.47-9.98-2.25-.43-1.37.99-1.48,2.47-.18,2.48.12,5.03,0,7.51Z"/>
  <path class="cls-1" d="M183.37,118.19c6.99-1,15.62.59,16.81,8.76.92,6.37-4.26,8.81-4.47,10.72-.28,2.61,6.37,17.84,4.66,19.52l-4.91-.1-4.11-17.9h-2.98v18h-5v-39ZM188.37,133.19c8.24.98,8.26-9.98,0-9.01v9.01Z"/>
  <path class="cls-1" d="M112.37,118.19v30.5c0,.44,1.9,3.22,2.63,3.44l2.37-.42c.45-.52,2-1.72,2-2.02v-31.5h6v31.5c0,3.43-5.3,7.77-8.87,7.98-2.94.17-9.13-3.14-9.13-5.98v-33.5h5Z"/>
  <path class="cls-1" d="M166.37,118.19h12s-.94,5.57-.94,5.57l-5.07.43v10s5.07.43,5.07.43l.94,5.57h-6.01s-.01,10.43-.01,10.43l6.02.58c-.03.83.09,1.69.04,2.52-.1,1.51-.05,2.86-1.68,3.34l-10.36.14v-39Z"/>
  <path class="cls-1" d="M240.38,131.19c3.21-.95,3.37-12.31,4.03-12.95l5.95-.04c-4.21,12.97-7.34,25.14-5.99,39h-6.01c1.51-13.78-2.13-25.56-6.01-38.49,7.55-3.34,6.93,7.39,8.02,12.49Z"/>
  <polygon class="cls-1" points="204.37 118.19 216.37 118.19 215.43 123.76 210.36 124.19 210.34 133.63 215.93 135.13 216.37 140.19 210.37 140.19 210.37 157.19 204.37 157.19 204.37 118.19"/>
  <polygon class="cls-1" points="226.37 118.19 226.37 151.19 232.37 151.19 232.37 157.2 221.37 157.19 221.37 118.19 226.37 118.19"/>
</svg>