<?xml version="1.0" encoding="UTF-8"?>
<svg id="_圖層_1" data-name="圖層 1" xmlns="http://www.w3.org/2000/svg" viewBox="0 0 290.37 165.23">
  <defs>
    <style>
      .cls-1 {
        fill: none;
        stroke: #f2f2f2;
        stroke-miterlimit: 10;
        stroke-width: 1.5px;
      }
    </style>
  </defs>
  <path class="cls-1" d="M128.08,112.93c-14.55-42-59.03-55.56-99.14-60.86-6-.79-11.86-.73-17.73-1.27-1.33-.12-6.12-.55-6.62-1.87,36.67-7.58,72.5-18.91,107.49-32.02l-14.66,18.33c-3.52,6.12-1.44,11.03,5.16,13.19,16.22,5.33,56.95-3.3,74.44-7.59,37.73-9.27,76.03-22.3,111.07-38.93l-17.54,24.46c-25.56,10.02-54.6,15.94-79.31,27.69-25.53,12.14-33.12,31.56-24.64,58.86h-38.5ZM156.58,61.94l-38.99,4.98c9.35,3.32,15.31,12.43,21.91,19.37.8.85.69.9,2.08.64.75-10.28,8.48-17.78,15.01-24.99Z"/>
  <path class="cls-1" d="M181.58,125.93v27.5c0,4.83,13,4.39,13,1v-28.5h35.5c2.58,0,6.5,5.07,6.5,7.5v30.5h-15v-27.5c0-.28-1.03-2.33-1.69-2.54l-10.31.04v22.5c0,4.18-3.49,7.06-7.48,7.52-5.06.58-24.47.82-29-.04-1.45-.28-5.52-3.91-5.52-4.48v-33.5h14Z"/>
  <path class="cls-1" d="M66.58,125.93c-5.54.02-10.99-.96-15.51,2.99l-28.99,35.01H1.58l37.01-45.49c1.52-1.42,7.85-5.51,9.49-5.51h18.5v13c2.8-3.16,11.49-13,15.5-13h19.5v44.5c0,.86-5.06,6.5-5.5,6.5h-25.5l29.99-36.51c.42-2.27-.99-1.37-2.48-1.49-3.93-.31-8.4-.21-11.55,2.46l-30.46,35.54h-20.5c11.1-11.92,20.23-25.86,31-38Z"/>
  <path class="cls-1" d="M247.29,126.15c3.79-.84,28.95-.67,32.03.55,6.83,2.71,5.76,19.42,5.3,25.78-.43,5.94-.54,10.67-7.52,11.48-4.08.47-28.99.5-31.5-.55-1.92-.8-3.79-3.76-4.08-5.92-.61-4.62-.6-20.46.11-24.99.47-2.98,2.65-5.68,5.65-6.35ZM256.81,155.69c2.77,1.63,10.72,2.43,12.27-.76,1.19-2.45,1.34-19.13-1.5-20.51-2.56-1.25-9.83-1.36-11.27,1.74-1.25,2.69-1.38,17.64.5,19.53Z"/>
  <path class="cls-1" d="M162.58,125.93c2.1,13.75-12.34,20.87-19,31h19v7h-35c-2.68-13.39,12.63-19.6,18-30h-18v-8h35Z"/>
  <path class="cls-1" d="M122.58,125.93v32.5c0,5.68-10.97,6.27-15,5.5v-38h15Z"/>
</svg>