<?xml version="1.0" encoding="UTF-8"?>
<svg id="_圖層_1" data-name="圖層 1" xmlns="http://www.w3.org/2000/svg" viewBox="0 0 393.5 93.53">
  <defs>
    <style>
      .cls-1 {
        fill: none;
        stroke: #f2f2f2;
        stroke-miterlimit: 10;
        stroke-width: 1.5px;
      }
    </style>
  </defs>
  <path class="cls-1" d="M.75,39.75C10.18,16.64,33.46,9.68,54.28,23.74c14.82-11.97,35.16-10.02,46.89,5.1.9,1.15,5.59,8.87,5.59,9.41v51.5h-23v-46.5c0-3.2-6.06-7.57-9.5-7.56-4.05.01-9.5,4.75-9.5,8.56v45.5h-22v-44.5c0-9.95-17.16-13.96-20.57-1.57-3.72,13.49-.16,31.96-1.42,46.08H.75v-50.01Z"/>
  <path class="cls-1" d="M289.75,92.75c-56.53-1.92-45.33-90.15,10.03-76.53,11.67,2.87,28.97,17.37,28.97,30.03v14.5h-56c5.07,13.58,20.25,15.7,31.27,6.99.98-.77.62-1.99.73-1.99h22c-2.37,10.07-10.99,19.02-20.31,23.19-3.11,1.39-10.56,3.65-13.69,3.81-.98.05-2.02.03-3,0ZM305.75,42.75c.36-1.68-.54-2.02-1.52-2.98-7.96-7.81-23.56-7.14-29.48,2.98h31Z"/>
  <path class="cls-1" d="M236.75.75v18h15v19h-15v25.5c0,.27,1.78,4.33,2.14,4.86,3.19,4.74,7.79,3.62,12.86,3.64v17h-16.5c-.53,0-4.48-2.03-5.44-2.56-23.15-12.8-12.68-63.38-15.06-85.44h22Z"/>
  <rect class="cls-1" x="187.75" y=".75" width="22" height="89"/>
  <path class="cls-1" d="M392.75,90.75h-21v-45.5c0-.33-3.08-4.94-3.76-5.52-3.17-2.67-8.85-2.93-12.22-.46-.95.69-4.02,5.37-4.02,5.98v45.5h-21v-45.5c0-2.2,2.68-10.84,3.82-13.18,10.69-21.81,46.5-17.87,55.35,4,.69,1.7,2.83,7.89,2.83,9.17v45.5Z"/>
  <path class="cls-1" d="M139.75,71.75h-25c-7.81-17.65-2.98-39.29,14.31-49.19,5.95-3.41,24.41-9.92,24.77.73.27,8.22-18.22,14.88-22.25,23.79-5.35,11.86.67,16.64,8.17,24.67Z"/>
  <path class="cls-1" d="M157.75,18.76c18.06,5.06,28.84,21.8,26.99,40.48-.26,2.61-2.21,11.52-4.65,12.35-1.68.57-30.24.64-32.82.14-2.27-.44-3.17-1.98-4.12-3.95-1.79-6.7,18.93-15.26,21.92-23.2,3.92-10.4-1.74-17.63-7.32-25.81ZM165.74,50.75c-2.38,4.19-23.4,12.85-16.58,18.08,7.45,5.7,18.2-11.31,16.58-18.08Z"/>
  <path class="cls-1" d="M175.75,77.75c1.99,1.76-10.23,9.19-11.64,9.86-15.19,7.12-34.02,3.64-44.36-9.86h56Z"/>
</svg>