<?xml version="1.0" encoding="UTF-8"?>
<svg id="_圖層_1" data-name="圖層 1" xmlns="http://www.w3.org/2000/svg" viewBox="0 0 238.5 99.13">
  <defs>
    <style>
      .cls-1 {
        fill: none;
        stroke: #f2f2f2;
        stroke-miterlimit: 10;
        stroke-width: 1.5px;
      }
    </style>
  </defs>
  <path class="cls-1" d="M42.75,78.2c-1.76,6.31,2.88,8.77,2.96,13.96l-14.95,2.04c-1.49-4.09,2.46-5.85,2.98-8.51.61-3.12.53-17.56.1-21.02-.25-2.02-4.88-2.92-3.08-7.46l11.86,2.14.72,12.88c2.52-.28,5.5.41,7.9-.04,5.41-1.02,5.96-11.03,2.56-14.52-4.23-4.35-32.04-4.45-39.31-6.31-1.17.59-2.55,1.34-2.31,2.9.75,4.9,10.81,19.45,13.06,25.97,6.1,17.73-12.61,15.6-24.47,17.98v-13.01s4.84.16,4.84.16c.51,6.77,10.21,8.39,10.23,1.36.02-5.68-12.5-23.21-14.4-30.7-1.64-6.46,1.79-11.73,8.7-11.72,9.28,0,30.22,3.29,39.98,5.04,6.87,1.24,13.32,3.38,14.57,11.42,2.12,13.65-10.02,19.25-21.94,17.43Z"/>
  <path class="cls-1" d="M194.75,56.71c-.48-2.74-5.55-3.22-4.01-7.5l13.01-1c1.86,3.49-3.01,5.14-3.01,5.5v38c-1.44,1.73-10.61.6-11.51-.49l-9.5-24c-1.74-.24-.94,2.27-.99,3.48-.13,3.5-.61,11.77.53,14.48.62,1.49,4.44,2.98,1.48,5.55l-27.01-1.52c-1.79-4.87,2.56-5.01,3.03-7.47.64-3.37.52-19.33.06-23.07-.27-2.23-4.55-2.32-3.09-6.46h12s0,30.5,0,30.5c0,2.04,7,2.04,7,0v-25c0-.75-6.76-2.91-3.02-6.02l12.86-1.31c3.93,8.43,6.62,18.47,12.16,25.83-.72-5.9.98-13.91,0-19.5Z"/>
  <path class="cls-1" d="M96.75,58.21c-.26-.38-4.49-.45-3-5h12s0,29,0,29l6.87-.13,1.24-4.76,4.89-.11v10.01s-36.47,2.03-36.47,2.03c-7.32-3.13,3.51-4.69-.51-8.56l-12.03-.48c-1.27,4.87,3.28,5.13,2.01,10l-14,.99c-1.4-5.61,2.61-5.32,4.76-8.72,3.84-6.06,5.44-18.1,9.09-24.82-3.32-1.7-3.22-2.72-2.86-6.45l13.52,1.99c2.17,4.31,8.7,29.32,12,30.01l2.49-1.5c-.7-3.5.94-22.13,0-23.5ZM79.76,75.2c.66-.66-1.67-10.5-3.99-10.99l-3.01,10.99h7Z"/>
  <path class="cls-1" d="M237.75,43.21v14l-5.86-.15c-1.9-7.73-8.58-9-13.67-2.88-5.8,6.96-4.79,22.48-1.47,30.55,2.21,5.38,4.24,6.47,10.01,4.48v-16.5c0-.43-4.93-4.15-3-7.5h14v33c-14.01-2.2-26.64-1.95-32.04-17.46-8.58-24.67,8.91-37.95,32.04-37.54Z"/>
  <path class="cls-1" d="M121.75,87.21v-27.5c0-.4-5.11-2.2-3-6.5h20.5c8.08,0,13.29,10.37,13.29,17.5,0,19.3-16.79,17.28-30.79,16.5ZM130.75,82.21c16.95,4.5,16.63-27.42,0-23v23Z"/>
  <path class="cls-1" d="M107.75,11.22c-18.88,13.97-12.67,30.65,11.39,26.88l19.6-6.4c-6.27,5.16-13.79,8.61-21.79,10.21-31.9,6.39-37.41-20.76-9.2-30.69Z"/>
  <path class="cls-1" d="M130.75,32.2c17.08-12.7,14.06-29.15-9.49-26.98l-21.5,6.49c9.6-9.04,33.86-15.64,44.75-6.76,11.84,9.66-2.78,24.98-13.75,27.24Z"/>
  <path class="cls-1" d="M127.75,8.21l-1.01,5.99c-2.53,2.08-5.27-6.42-6.86-1.34-2.45,7.83,14.89,22.6-10.12,22.33l1-6c4.39-1.11,3.73,6.6,7.65.52-.97-4.87-6.51-14.02-3.1-18.47l12.44-3.05Z"/>
</svg>