<?xml version="1.0" encoding="UTF-8"?>
<svg id="_圖層_1" data-name="圖層 1" xmlns="http://www.w3.org/2000/svg" viewBox="0 0 960.36 221.5">
  <defs>
    <style>
      .cls-1 {
        fill: none;
        stroke: #f2f2f2;
        stroke-miterlimit: 10;
        stroke-width: 1.5px;
      }
    </style>
  </defs>
  <path class="cls-1" d="M736.18,220.75h-24c-68.22-5.4-117.92-79.2-71.4-138.9,44.8-57.48,149.17-48.82,177.26,20.54,23.03,56.88-24.85,113.51-81.86,118.36ZM716.96,87.03c-22.44,2.73-38.26,23.45-38.4,45.39-.24,37.57,43.11,60.08,72.64,35.84,35.42-29.07,11.95-86.84-34.23-81.23Z"/>
  <path class="cls-1" d="M554.18.75l1,54h46l19,42h-65l.09,65.41c-.36,4.16,6.87,13.59,10.41,13.59h48.5v42h-65.5c-2.33,0-14.7-5.04-17.52-6.48-17.31-8.86-27.57-25.64-29.02-44.98l.04-165.54h52Z"/>
  <path class="cls-1" d="M1.18,2.75h58.5l82,169.98,61.95-104.03c3.02-10.69-2.25-19.82-12.18-23.72l-50.28-.72L121.18,2.76c17.86.06,35.65-1.56,53.54-1.05,27.05.76,49.08,2.2,67.43,24.57,22.94,27.96,14.72,54.75-.8,83.14-19.84,36.3-42.88,70.96-62.71,107.29l-2.16,1.84-70.86.25-2.96-1.04L1.18,2.75Z"/>
  <path class="cls-1" d="M415.68,217.75c-61.19-5.66-94.36-71.6-62.31-124.31,25.55-42.01,72.74-39.76,116.35-38.77l20.46,42.07h-59.5c-32.89,0-49.38,43.65-26.49,67.49,4.08,4.25,16.74,11.51,22.49,11.51h57.5v42c-22.07-1.5-46.74,2.01-68.5,0Z"/>
  <path class="cls-1" d="M837.18,217.75c.81-30.78-1.06-61.77-.04-92.54.64-19.32.7-36.55,14.07-51.93,22.37-25.73,58.11-17,88.3-18.57l19.67,42.04h-54.5c-2.03,0-8.43,3.25-10.05,4.95-2.07,2.18-4.45,8.77-4.45,11.55v104.5h-53Z"/>
  <polygon class="cls-1" points="324.18 55.75 324.18 217.75 272.18 217.75 272.18 57.25 273.68 55.75 324.18 55.75"/>
  <polygon class="cls-1" points="324.18 1.75 324.18 44.75 272.18 44.75 272.18 2.75 324.18 1.75"/>
</svg>