<?xml version="1.0" encoding="UTF-8"?>
<svg id="_圖層_1" data-name="圖層 1" xmlns="http://www.w3.org/2000/svg" viewBox="0 0 712.5 176.24">
  <defs>
    <style>
      .cls-1 {
        fill: none;
        stroke: #f2f2f2;
        stroke-miterlimit: 10;
        stroke-width: 1.5px;
      }
    </style>
  </defs>
  <path class="cls-1" d="M62.75,7.18v119.5c0,.39,2.04,4.72,2.55,5.45,5.05,7.41,18.91,8.75,24.9,1.99,1.73-1.95,4.56-9.11,4.56-11.44V36.68l-1.5-1.5h-17.5V7.18h62v120.5c0,2.74,3.42,8.59,6.26,9.74,15.53,6.28,24-13.74,27.24-25.24,4.83-17.13,3.97-32.91,1.34-50.34-1.3-8.61-3.18-19.24-7.34-26.66h-14.5V7.18h50.5c3.83,5.82,5.55,14.09,7.03,20.97,8.39,38.9,11.25,100-18.02,131.05-20.01,21.22-59.21,23.23-75.53-3h-1.47c-20.68,28.59-69.69,23.92-86.54-6.48-2.92-5.26-7.97-19.34-7.97-25.03V35.18H.75V7.18h62Z"/>
  <path class="cls-1" d="M273.75,134.68c.47,2.21,3.53,4.68,5.85,4.97,11.23,1.41,22.36-18.36,23.18-27.94,2.25-26.11-3.66-59.88.2-84.8,5.04-32.49,66.05-35.87,77.24-3.72,8.1,23.27-4.16,48.47-15.67,68.28-4.75,8.17-20.28,27.9-22.12,34.88-2.38,9.07,2.34,14.9,11.72,13.74,24.51-3.04,39.64-54.97,39.6-75.91h36.99c4.67,30.63,43.86,50.89,28.2,85.68-14.78,32.84-49.66,28.52-73.19,7.81-1.52-1.34-1.69-4.3-4.55-4.55-2.64-.24-10.41,8.31-13.52,10.49-13.23,9.25-30.08,14.13-45.61,7.75-10.04-4.13-14.29-10.77-18.81-20.15-12.13,10.19-20.72,21.61-37.97,23-50.51,4.07-30.54-55.89-34.56-86.51-.63-3.59-4.89-4.28-7.98-4.52v-19h51v70.5ZM340.75,84.18c4.56-1.18,7.28-8.3,9.17-12.33,4.81-10.2,13.7-34.86,6.3-44.65-6.03-7.98-15.48,4.37-15.48,9.48v47.5ZM407.25,105.2c-.98.75-1.68,1.62-2.27,2.71-1.29,2.39-10.3,25.28-10.2,26.71.67,10.02,21.66,14.75,24.74-.17,1.7-8.24-7.83-22.31-12.27-29.25Z"/>
  <path class="cls-1" d="M590.75,106.68c-1.57-8.93-14.19-5.7-14.08,4,.05,3.91,1.33,7.3,1.06,11.99-3.78,64.74-97.03,68.96-110.51,9.55-12.49-55.06,52.42-91.13,92-57,2.24,1.93,7.37,9.02,9.03,9.01,6.79-4.46,11.22-11.54,18.18-15.86,11.77-7.31,25.77-9.04,36.32,1.33,2.22,2.19,6.47,10.38,8.53,10.57,3.1.29,5.61-4.16,8-6.04,10.77-8.46,19.69-13.23,34.01-12.07,39.42,3.19,21.19,61.64,25.7,87.3,1.26,7.17,6.99,5.73,12.76,5.73v18h-38.5c-.35,0-5.55-2.15-6.4-2.6-16.41-8.57-8.53-44.5-10.06-60.94-.85-9.11-5.58-11.64-14.46-10.37-3.31.47-9.58,3.77-9.58,7.41v66.5h-42v-66.5ZM517.46,91.39c-8.6,1.95-9.94,21.98-9.7,29.28.2,6.14,2.17,21.17,7.97,24.03,22.32,10.99,20.68-31.63,17.55-43.55-2.25-8.57-6.56-11.86-15.82-9.76Z"/>
  <path class="cls-1" d="M249.53,20.46c15.48-1.49,34.85,7.4,28.69,25.69-4,11.89-16.52,14.92-27.95,14.01-30.41-2.41-30-36.89-.74-39.7Z"/>
</svg>