<?xml version="1.0" encoding="UTF-8"?>
<svg id="_圖層_1" data-name=" 圖層 1" xmlns="http://www.w3.org/2000/svg" viewBox="0 0 839 159.07">
  <defs>
    <style>
      .cls-1 {
        fill: none;
        stroke: #f2f2f2;
        stroke-miterlimit: 10;
        stroke-width: 1.5px;
      }
    </style>
  </defs>
  <polygon class="cls-1" points="563.81 4.55 602.81 83.55 602.81 4.55 629.81 4.55 629.81 154.55 606.31 154.55 566.81 75.55 566.81 153.05 565.31 154.55 540.31 154.55 538.81 153.05 538.81 6.05 540.31 4.55 563.81 4.55"/>
  <path class="cls-1" d="M470.6.85c20.88-1.03,38.71,5.67,46.22,26.18,8.36,22.83,8.24,84.29-1.26,106.78-13.59,32.18-67.46,32.45-82.64,2.11-11.26-22.51-11.35-90.36,0-112.75,7.58-14.96,21.25-21.52,37.67-22.32h.01ZM486.45,127.2c3.78-3.55,5.74-11.14,6.33-16.16,2.16-18.17,2.14-46.71-.09-64.87-3.07-25.03-34.37-25.22-37.78-2-.58,3.95-.96,10.64-1.16,14.84-.66,13.82-1.6,54.53,4.84,65.25,5.24,8.72,20.72,9.64,27.85,2.94h.01Z"/>
  <polygon class="cls-1" points="727.81 4.55 727.81 31.55 676.81 31.55 676.81 65.55 723.81 65.55 723.81 92.55 676.81 92.55 676.81 126.55 727.81 126.55 727.81 154.55 648.81 154.55 648.81 4.55 727.81 4.55"/>
  <polygon class="cls-1" points="765.31 4.55 786.32 46.56 806.81 4.55 837.81 4.55 802.18 79.05 837.81 154.55 808.31 154.55 787.29 111.54 765.81 154.55 735.81 154.55 771.43 79.05 735.81 4.55 765.31 4.55"/>
  <polygon class="cls-1" points="352.81 4.55 374.31 56.56 397.81 4.55 427.81 4.55 387.81 92.05 387.81 154.55 361.31 154.55 359.81 153.05 359.81 91.05 322.81 4.55 352.81 4.55"/>
  <path class="cls-1" d="M36.56,70.81c67.58-9.14,67.34,95.59,0,86.48-47.75-6.46-47.75-80.02,0-86.48Z"/>
  <path class="cls-1" d="M162.56,70.81c67.5-9.13,67.39,95.6,0,86.48-47.61-6.44-47.75-80.02,0-86.48Z"/>
  <path class="cls-1" d="M287.81,4.55l-62.5,109.01c-1.8-.05-1.37-12.45-1.63-14.38-5.52-41.94-25.63-69.2-59.57-92.4-.9-.62-1.83.17-1.3-2.23,0,0,125,0,125,0Z"/>
  <path class="cls-1" d="M161.81,4.55l-62.01,109c-2.61,1.97-1.97-13.13-2.12-14.37-5.03-41.42-26.19-69.58-59.57-92.4-.9-.62-1.83.17-1.3-2.23,0,0,125,0,125,0Z"/>
</svg>