<svg width="106" height="105" viewBox="0 0 106 105" fill="none" xmlns="http://www.w3.org/2000/svg">
<path d="M88.3332 52.5V87.875C88.3332 89.7606 88.3332 90.7034 87.7474 91.2892C87.1616 91.875 86.2188 91.875 84.3332 91.875H23.6665C20.8381 91.875 19.4239 91.875 18.5452 90.9963C17.6665 90.1176 17.6665 88.7034 17.6665 85.875V76C17.6665 73.1716 17.6665 71.7574 18.5452 70.8787C19.4239 70 20.8381 70 23.6665 70H84.3332C86.2188 70 87.1616 70 87.7474 69.4142C88.3332 68.8284 88.3332 67.8856 88.3332 66V17.125C88.3332 15.2394 88.3332 14.2966 87.7474 13.7108C87.1616 13.125 86.2188 13.125 84.3332 13.125H21.6665C19.7809 13.125 18.8381 13.125 18.2523 13.7108C17.6665 14.2966 17.6665 15.2394 17.6665 17.125V80.9375" stroke="white" strokeWidth="3"/>
<path d="M39.75 35L66.25 35" stroke="white" strokeWidth="3"/>
</svg>
