<svg width="106" height="105" viewBox="0 0 106 105" fill="none" xmlns="http://www.w3.org/2000/svg">
<path d="M15.4585 19.6875H27.2713C27.9651 19.6875 28.3119 19.6875 28.5735 19.8754C28.835 20.0633 28.9456 20.3921 29.1669 21.0496L33.1252 32.8125" stroke="white" strokeWidth="3" strokeLinecap="round"/>
<path d="M77.2918 76.5625H31.4917C30.2221 76.5625 29.5873 76.5625 29.288 76.1461C28.9888 75.7296 29.1912 75.128 29.5962 73.9246L32.2084 66.1618C32.651 64.8467 32.8722 64.1892 33.3952 63.8133C33.9183 63.4375 34.612 63.4375 35.9995 63.4375H64.0418" stroke="white" strokeWidth="3" strokeLinejoin="round"/>
<path d="M70.5645 63.4375H40.1692C38.8945 63.4375 38.2572 63.4375 37.7573 63.1091C37.2573 62.7806 37.0042 62.1957 36.4981 61.0258L26.1049 37.0037C25.2862 35.1115 24.8768 34.1653 25.3212 33.4889C25.7655 32.8125 26.7964 32.8125 28.8582 32.8125H85.3475C87.6561 32.8125 88.8103 32.8125 89.2434 33.5623C89.6765 34.312 89.0997 35.3119 87.9461 37.3116L74.0293 61.4363L74.0293 61.4363C73.4659 62.4129 73.1842 62.9012 72.72 63.1694C72.2557 63.4375 71.692 63.4375 70.5645 63.4375Z" stroke="white" strokeWidth="3"/>
<ellipse cx="75.0832" cy="87.5" rx="4.41666" ry="4.375" fill="white" stroke="white" strokeWidth="3"/>
<ellipse cx="39.7502" cy="87.5" rx="4.41667" ry="4.375" fill="white" stroke="white" strokeWidth="3"/>
</svg>
