<svg width="105" height="105" viewBox="0 0 105 105" fill="none" xmlns="http://www.w3.org/2000/svg">
<circle cx="52.5" cy="39.375" r="8.25" stroke="#222222" stroke-linecap="round"/>
<path d="M67.2303 35.25C68.3243 33.3551 70.1263 31.9724 72.2397 31.4061C74.3532 30.8398 76.6051 31.1363 78.5 32.2303C80.3949 33.3243 81.7776 35.1263 82.3439 37.2397C82.9102 39.3532 82.6137 41.6051 81.5197 43.5C80.4257 45.3949 78.6237 46.7776 76.5103 47.3439C74.3968 47.9102 72.1449 47.6137 70.25 46.5197C68.3551 45.4257 66.9724 43.6237 66.4061 41.5103C65.8398 39.3968 66.1363 37.1449 67.2303 35.25L67.2303 35.25Z" stroke="#222222"/>
<path d="M23.4803 35.25C24.5743 33.3551 26.3763 31.9724 28.4897 31.4061C30.6032 30.8398 32.8551 31.1363 34.75 32.2303C36.6449 33.3243 38.0276 35.1263 38.5939 37.2397C39.1602 39.3532 38.8637 41.6051 37.7697 43.5C36.6757 45.3949 34.8737 46.7776 32.7603 47.3439C30.6468 47.9102 28.3949 47.6137 26.5 46.5197C24.6051 45.4257 23.2224 43.6237 22.6561 41.5103C22.0898 39.3968 22.3863 37.1449 23.4803 35.25L23.4803 35.25Z" stroke="#222222"/>
<path d="M72.1879 54.6875L72.1879 54.1875H72.1879V54.6875ZM89.6342 71.1982L90.1324 71.1564L90.1324 71.1562L89.6342 71.1982ZM66.8129 72.1875L66.8127 71.6875L66.8129 72.6875V72.1875ZM67.766 71.1973L68.2647 71.1604L68.2647 71.1604L67.766 71.1973ZM61.6869 57.6875L61.3962 57.2807L60.864 57.661L61.3707 58.0748L61.6869 57.6875ZM72.1879 54.6875L72.1879 55.1875C79.5012 55.1876 83.6313 58.3021 85.9928 61.8333C88.3752 65.3958 88.9827 69.4247 89.136 71.2403L89.6342 71.1982L90.1324 71.1562C89.9733 69.2716 89.3438 65.0453 86.8241 61.2774C84.2835 57.4784 79.8466 54.1876 72.1879 54.1875L72.1879 54.6875ZM89.6342 71.1982L89.1359 71.2401C89.1554 71.4717 88.9742 71.6875 88.6869 71.6875V72.1875V72.6875C89.504 72.6875 90.2054 72.0251 90.1324 71.1564L89.6342 71.1982ZM88.6869 72.1875V71.6875H66.8129V72.1875V72.6875H88.6869V72.1875ZM66.8129 72.1875L66.8131 72.6875C67.6312 72.6872 68.3285 72.0248 68.2647 71.1604L67.766 71.1973L67.2674 71.2341C67.2849 71.4711 67.0987 71.6874 66.8127 71.6875L66.8129 72.1875ZM67.766 71.1973L68.2647 71.1604C68.1681 69.8537 67.874 67.4353 66.9746 64.8262C66.0758 62.2189 64.5612 59.389 62.0032 57.3002L61.6869 57.6875L61.3707 58.0748C63.7363 60.0064 65.1667 62.6501 66.0292 65.1521C66.891 67.6522 67.1746 69.9785 67.2674 71.2341L67.766 71.1973ZM61.6869 57.6875L61.9776 58.0943C64.3846 56.3744 67.6743 55.1875 72.1879 55.1875V54.6875V54.1875C67.4885 54.1875 63.9904 55.427 61.3962 57.2807L61.6869 57.6875Z" fill="#222222"/>
<path d="M32.8124 54.6875L32.8124 54.1875L32.8124 54.1875L32.8124 54.6875ZM43.3114 57.6875L43.6277 58.0748L44.1344 57.661L43.6021 57.2807L43.3114 57.6875ZM37.2333 71.1973L36.7346 71.1604L36.7346 71.1604L37.2333 71.1973ZM16.3124 72.1875L16.3123 72.6875H16.3124V72.1875ZM15.3651 71.1982L14.8669 71.1562L14.8669 71.1564L15.3651 71.1982ZM32.8124 54.6875V55.1875C37.3252 55.1875 40.6138 56.3748 43.0207 58.0943L43.3114 57.6875L43.6021 57.2807C41.0081 55.4275 37.5112 54.1875 32.8124 54.1875V54.6875ZM43.3114 57.6875L42.9951 57.3002C40.4374 59.3891 38.9232 62.2191 38.0245 64.8263C37.1252 67.4354 36.8312 69.8538 36.7346 71.1604L37.2333 71.1973L37.7319 71.2341C37.8247 69.9786 38.1082 67.6523 38.9699 65.1522C39.8323 62.6502 41.2624 60.0064 43.6277 58.0748L43.3114 57.6875ZM37.2333 71.1973L36.7346 71.1604C36.6707 72.0254 37.3694 72.6875 38.1874 72.6875V72.1875V71.6875C37.9008 71.6875 37.7144 71.4707 37.7319 71.2341L37.2333 71.1973ZM38.1874 72.1875V71.6875H16.3124V72.1875V72.6875H38.1874V72.1875ZM16.3124 72.1875L16.3125 71.6875C16.0252 71.6874 15.8439 71.4716 15.8634 71.2401L15.3651 71.1982L14.8669 71.1564C14.7939 72.0251 15.4954 72.6874 16.3123 72.6875L16.3124 72.1875ZM15.3651 71.1982L15.8633 71.2403C16.0166 69.4247 16.6243 65.3958 19.0069 61.8333C21.3686 58.302 25.499 55.1875 32.8124 55.1875L32.8124 54.6875L32.8124 54.1875C25.1535 54.1876 20.7164 57.4784 18.1757 61.2774C15.6557 65.0452 15.026 69.2715 14.8669 71.1562L15.3651 71.1982Z" fill="#222222"/>
<path d="M52.5 54.6875C65.6005 54.6875 67.493 67.4967 67.7663 71.1974C67.807 71.7482 67.3648 72.1875 66.8125 72.1875H38.1875C37.6352 72.1875 37.193 71.7482 37.2337 71.1974C37.507 67.4967 39.3995 54.6875 52.5 54.6875Z" stroke="#222222" stroke-linecap="round"/>
<path d="M80.9375 94.0625H92.5625C93.3909 94.0625 94.0625 93.3909 94.0625 92.5625V80.9375" stroke="#222222" stroke-linecap="round"/>
<path d="M80.9375 10.9375H92.5625C93.3909 10.9375 94.0625 11.6091 94.0625 12.4375V24.0625" stroke="#222222" stroke-linecap="round"/>
<path d="M24.0625 94.0625H12.4375C11.6091 94.0625 10.9375 93.3909 10.9375 92.5625V80.9375" stroke="#222222" stroke-linecap="round"/>
<path d="M24.0625 10.9375H12.4375C11.6091 10.9375 10.9375 11.6091 10.9375 12.4375V24.0625" stroke="#222222" stroke-linecap="round"/>
</svg>
